<svg width="1919" height="1356" viewBox="0 0 1919 1356" fill="none" xmlns="http://www.w3.org/2000/svg">
<path d="M440.473 1192.21C438.97 1188.93 436.19 1185.2 432.955 1180.86C427.921 1174.1 422.203 1166.45 419.515 1158.03C414.252 1141.62 405.504 1110.12 406.051 1096.22C406.21 1091.96 405.8 1086.32 405.367 1080.36C404.821 1073.1 404.228 1064.86 404.57 1057.62C404.98 1049.34 406.598 1043.6 409.514 1040.1C414.594 1033.98 421.815 1026.56 428.308 1020.73C433.981 1015.66 441.681 1009.49 446.214 1008.85C448.264 1008.56 450.246 1008.44 452.137 1008.35C457.764 1008.03 462.639 1007.76 466.808 1003.19C469.519 1000.23 476.901 993.992 485.785 987.824C491.731 983.705 502.871 976.514 510.822 974.67C522.691 971.916 559.3 961.948 566.044 955.872C572.331 950.228 595.34 933.092 608.736 924.853C621.356 917.093 644.297 897.316 650.106 885.869C655.802 874.672 670.086 859.538 678.56 853.963C682.069 851.664 686.579 845.702 692.001 836.257C696.352 828.656 700.157 820.759 701.797 817.391L701.865 817.254C703.551 813.727 707.766 802.621 711.616 790.81C714.372 782.321 719.111 766.755 719.772 757.902C720.956 742.199 715.785 716.824 711.889 708.04C710.363 704.626 707.675 698.322 704.554 691.017C699.382 678.932 693.528 665.232 690.543 658.883C685.873 648.983 679.403 624.951 678.811 612.024C678.446 604.264 678.834 590.678 679.175 578.707C679.38 571.493 679.585 564.711 679.585 560.159C679.585 556.746 679.312 553.355 679.039 550.078C678.355 541.726 677.763 534.511 681.886 530.324C684.164 528.003 687.673 523.906 691.386 519.582C697.059 512.982 703.483 505.495 707.082 502.468C713.165 497.393 720.455 489.201 724.396 482.988C725.672 480.985 728.884 475.682 731.185 469.652C733.531 463.484 734.169 458.591 733.053 455.087C732.575 453.539 731.96 451.605 731.322 449.556C728.588 440.84 724.875 428.892 722.847 423.59C722.095 421.61 720.523 418.287 718.701 414.441C714.532 405.657 708.814 393.618 708.814 388.725C708.814 381.943 706.923 365.899 705.146 362.644C705.055 362.508 704.964 362.303 704.827 362.03C698.289 350.014 686.556 329.35 681.294 326.164C678.537 324.502 672.022 316.765 665.142 308.595C656.189 297.967 646.029 285.928 641.677 284.266C639.08 283.265 635.139 280.398 630.56 277.052C621.812 270.657 610.9 262.692 604.521 264.786C600.079 266.242 595.386 268.814 590.397 271.522C584.724 274.617 578.847 277.803 573.356 279.282C571.238 279.851 568.686 280.58 565.975 281.376C555.724 284.335 541.782 288.363 533.33 288.363C533.147 288.363 532.965 288.363 532.783 288.363C521.939 288.135 475.101 287.908 461.409 287.908C454.78 287.908 443.435 288.955 432.454 289.979C419.879 291.139 406.871 292.345 400.811 291.981C395.412 291.663 388.509 291.799 381.834 291.936C374.294 292.095 367.186 292.232 362.151 291.754C354.93 291.071 348.984 291.162 343.972 292.004C336.272 293.324 330.918 296.442 328.071 301.289C324.744 306.91 320.029 318.016 315.45 328.735C310.985 339.227 306.77 349.126 304.219 353.132C298.956 361.393 275.013 399.694 269.978 408.388C265.285 416.467 246.172 450.967 244.349 456.862C243.279 460.321 241.684 472.064 240.294 482.396C239.383 489.246 238.495 495.709 237.925 498.645C237.515 500.693 236.854 504.79 236.011 509.956C233.938 522.654 230.795 541.862 228.926 546.186C227.992 548.348 219.814 567.556 219.586 578.252C219.495 582.394 220.042 589.312 220.589 596.64C221.295 605.994 222.047 615.643 221.5 619.921C221.021 623.631 219.199 644.477 218.629 669.033C218.128 690.766 218.561 720.716 223.413 739.969C229.018 762.271 247.288 811.224 254.897 831.25C267.769 865.182 280.412 896.406 282.485 899.433C286.335 905.031 304.97 939.487 305.175 945.381C305.221 946.815 305.654 948.317 306.087 949.91C307.499 954.939 309.253 961.22 300.961 970.46C294.559 977.583 291.643 983.523 289.046 988.757C287.224 992.421 285.675 995.585 283.26 998.315C279.66 1002.41 270.912 1006.33 263.896 1009.47C259.681 1011.36 256.059 1012.97 254.601 1014.18C253.052 1015.45 251.343 1018.84 249.544 1022.44C246.81 1027.86 243.734 1034 240.385 1034.55C238.814 1034.8 235.055 1035.91 230.293 1037.3C217.695 1041.01 198.627 1046.61 190.198 1045.63C185.186 1045.04 180.22 1045.79 175.413 1046.52C168.898 1047.5 162.747 1048.41 156.938 1046.08C153.224 1044.6 149.283 1042.81 145.091 1040.9C137.915 1037.62 130.489 1034.23 124.247 1032.5C119.531 1031.2 114.838 1031.04 111.033 1032.09C107.275 1033.11 104.609 1035.25 103.561 1038.07C103.014 1039.53 102.217 1040.99 101.374 1042.53C98.8227 1047.2 95.9067 1052.48 98.4126 1060.22C98.8227 1061.49 99.21 1062.7 99.5745 1063.86C101.853 1071.14 103.356 1075.97 107.685 1076.56C108.049 1076.6 108.482 1076.67 108.983 1076.74C115.18 1077.63 131.651 1079.99 137.733 1074.74C139.556 1073.14 141.469 1071.16 143.474 1069.05C148.463 1063.84 154.113 1057.92 159.626 1057.76C159.763 1057.76 159.922 1057.76 160.082 1057.76C164.137 1057.76 173.181 1059.15 181.952 1061.6C188.307 1063.38 199.448 1067.14 202.682 1072.23C204.505 1075.1 208.697 1080.18 213.572 1086.05C223.732 1098.29 237.629 1115.04 241.137 1125.44C243.803 1133.34 248.291 1150.31 252.072 1166.75C256.537 1186.14 258.998 1200.38 258.838 1205.82C258.656 1211.83 261.139 1229.17 264.875 1248.01C269.044 1269.07 273.623 1286.22 277.109 1293.94C281.323 1303.27 284.103 1308.25 288.386 1311.28C292.167 1313.97 297.179 1315.08 305.699 1315.08C306.884 1315.08 308.137 1315.08 309.481 1315.01C313.286 1314.9 316.634 1314.88 319.869 1314.88C327.114 1314.88 332.832 1314.88 338.823 1313.49C345.27 1312.01 351.421 1309.05 358.78 1303.91C362.994 1300.95 367.027 1298.33 370.945 1295.78C384.75 1286.82 395.663 1279.74 400.15 1267.2C406.074 1250.68 409.741 1241.87 417.646 1232.56C424.299 1224.73 444.551 1200.88 440.542 1192.19L440.473 1192.21Z" stroke="#33CC99" stroke-width="0.5" stroke-miterlimit="10"/>
<path d="M210.884 1355.07C212.592 1353.75 214.757 1352.56 218.447 1351.52C223.14 1350.2 228.357 1347.85 232.754 1345.12C236.308 1342.94 240.978 1339.45 243.028 1335.43C243.962 1333.58 244.235 1331.81 243.871 1330.15C243.415 1328.1 242.914 1326.23 242.39 1324.28C240.75 1318.18 238.882 1311.24 237.72 1295.74C236.604 1280.99 232.161 1271.43 227.468 1261.28C225.737 1257.53 223.937 1253.66 222.32 1249.52C219.085 1241.12 210.815 1234.47 202.796 1228.06C196.486 1222.98 190.517 1218.18 187.305 1212.81C179.651 1200.02 163.111 1181.22 154.204 1171.14C142.38 1157.73 117.708 1143.12 112.879 1140.32C108.596 1137.84 97.1141 1127.12 86.0196 1114.13C78.2968 1105.07 65.0381 1088.07 63.0333 1076.06C60.7552 1062.38 55.1282 1052.52 48.0205 1040.08C44.3071 1033.57 40.0926 1026.19 35.7186 1017.16C29.1576 1003.57 14.4409 986.572 3.25531 974.67C4.39438 975.876 3.20975 974.602 1.04553 972.349" stroke="#33CC99" stroke-width="0.5" stroke-miterlimit="10"/>
<path d="M1.04553 890.694C9.42904 891.035 19.225 890.216 26.6745 885.892C43.4415 876.151 58.1809 866.684 70.5056 857.74C92.2845 841.969 104.677 829.179 107.297 819.712C110.92 806.626 108.846 801.301 107.32 797.409C106.295 794.815 105.566 792.926 107.297 789.808C111.284 782.571 113.175 769.69 112.924 761.27C112.924 760.883 112.924 760.496 112.902 760.087C112.696 752.713 112.423 742.586 106.933 732.254C104.176 727.042 101.192 722.081 98.0254 716.824C94.6082 711.157 90.7581 704.717 86.5436 696.934C84.5616 693.247 82.8303 690.38 81.3039 687.853C76.5654 679.979 73.9684 675.632 71.9408 661.636C69.1843 642.611 67.2023 632.666 63.4662 619.057C62.6461 616.052 61.6209 612.957 60.5502 609.658C56.609 597.596 52.554 585.147 57.6798 576.977C64.1952 566.6 80.051 552.035 86.5208 547.551C88.0016 546.527 89.7786 545.207 91.8516 543.705C98.8911 538.539 108.505 531.462 115.362 529.004C120.442 527.183 128.552 527.001 136.366 526.842C142.13 526.728 147.597 526.614 151.516 525.841C155.935 524.976 160.788 522.677 165.185 519.377C169.49 516.146 173.135 512.163 175.391 508.158C177.509 504.403 180.289 500.648 183.25 496.665C186.758 491.931 190.358 487.038 193.479 481.417C195.506 477.753 198.65 473.202 202.272 467.922C208.651 458.659 216.579 447.121 220.816 436.562C222.639 432.01 223.937 428.346 225.076 425.092C227.992 416.808 229.61 412.234 235.419 406.681C238.836 403.426 241.98 398.237 245.329 392.753C249.908 385.243 254.624 377.482 260.41 374.069C263.622 372.18 265.718 371.656 267.404 371.224C270.867 370.359 272.143 370.041 276.608 358.639C279.273 351.812 282.235 339.181 285.378 325.777C289.98 306.091 294.764 285.746 299.298 280.352C300.893 278.463 302.556 276.096 304.332 273.593C311.212 263.83 319.755 251.677 334.677 251.336C335.087 251.336 335.52 251.336 335.953 251.336C347.571 251.336 365.569 254.841 380.149 257.662C389.785 259.529 398.1 261.144 402.315 261.326C406.347 261.486 410.47 262.692 415.254 264.08C423.319 266.424 432.477 269.087 444.346 267.653C453.595 266.538 459.906 267.175 466.581 267.835C473.574 268.541 480.819 269.246 492.141 268.108C503.919 266.902 509.341 264.558 513.692 262.692C517.223 261.167 520.071 259.938 525.083 259.938C525.47 259.938 525.88 259.938 526.29 259.961C539.412 260.439 553.651 256.889 560.941 251.336C562.945 249.811 565.952 247.877 569.438 245.646C579.553 239.183 593.381 230.33 601.355 219.634C605.159 214.514 608.417 209.234 611.561 204.136C617.188 195.01 622.04 187.113 627.508 184.769C631.631 183.017 634.387 183.062 636.825 183.131C639.422 183.199 641.655 183.244 644.821 181.151C646.826 179.831 648.603 178.056 650.312 176.326C653.797 172.821 656.827 169.795 660.176 172.526C665.051 176.485 667.511 192.166 665.165 204.159C664.846 205.843 664.459 207.573 664.071 209.416C661.679 220.453 658.718 234.199 662.408 251.29C663.32 255.478 664.049 259.301 664.778 263.033C667.443 276.734 669.357 286.61 675.166 291.64C678.105 294.166 682.934 299.537 688.037 305.204C695.715 313.715 704.417 323.364 709.042 326.072C712.96 328.371 717.972 333.378 722.437 339.454C727.494 346.327 731.458 353.951 733.577 360.96C738.498 377.118 745.56 405.133 747.861 414.35C750.936 426.548 755.948 457.863 755.948 466.875C755.948 471.631 753.328 473.839 749.98 476.615C747.018 479.073 743.692 481.872 741.323 487.221C739.705 490.885 738.361 494.708 737.063 498.372C734.397 505.95 731.891 513.119 727.472 517.079C726.173 518.262 724.578 519.218 722.893 520.242C719.498 522.313 715.648 524.68 712.436 529.641C708.723 535.399 706.581 543.592 705.898 554.697C705.647 558.908 705.351 563.254 705.055 567.442C704.144 580.892 703.21 594.774 703.232 606.335C703.232 619.284 704.508 627.887 707.037 632.643C709.361 636.967 712.049 640.995 714.919 645.273C720.113 653.034 725.49 661.045 728.975 671.582C730.547 676.338 732.757 681.595 735.103 687.148C740.821 700.689 747.291 716.05 747.428 731.116C747.542 743.018 751.21 752.349 754.149 759.836C756.449 765.685 758.272 770.305 757.429 773.901C753.693 789.695 748.863 800.573 743.054 806.262C737.997 811.201 732.096 823.695 726.879 834.732C723.69 841.469 720.683 847.841 718.2 851.778C714.828 857.171 705.374 865.797 696.216 874.149C687.901 881.75 680.041 888.919 678.355 892.31C677.945 893.152 677.421 894.244 676.806 895.541C672.159 905.304 662.477 925.581 654.526 930.565C646.917 935.322 623.68 950.774 616.8 959.104C610.194 967.114 592.242 985.002 581.034 993.286C577.525 995.88 569.62 1000.27 560.462 1005.35C550.028 1011.13 538.228 1017.68 528.682 1023.87C517.565 1031.09 511.915 1036.28 511.391 1039.76C510.138 1047.95 506.926 1062.65 504.58 1073.37C503.669 1077.54 502.871 1081.13 502.347 1083.7C501.755 1086.57 500.479 1090.21 499.135 1094.08C496.037 1102.98 492.528 1113.06 494.26 1120.89C495.217 1125.21 498.338 1131.61 501.664 1138.41C507.222 1149.77 513.51 1162.65 512.918 1171.59C512.872 1172.19 512.849 1172.78 512.804 1173.37C511.938 1186.48 511.505 1193.05 505.628 1197.38L504.944 1197.88C499.044 1202.2 492.939 1206.69 488.291 1218.91C486.15 1224.53 482.322 1227.9 477.857 1231.81C472.367 1236.64 466.125 1242.1 461.751 1253.32C459.359 1259.44 457.445 1265.86 455.6 1272.09C451.294 1286.59 447.217 1300.27 437.717 1308.78C423.57 1321.43 408.921 1331.06 399.444 1333.9C396.938 1334.65 395.002 1335.02 393.43 1335.34C388.874 1336.22 386.96 1336.56 381.515 1344.35C377.688 1349.81 375.251 1352.84 372.13 1355.02" stroke="#33CC99" stroke-width="0.5" stroke-miterlimit="10"/>
<path d="M463.369 1355.07C463.665 1354.82 463.938 1354.57 464.234 1354.29" stroke="#33CC99" stroke-width="0.5" stroke-miterlimit="10"/>
<path d="M467.606 1351.24C468.13 1350.77 468.654 1350.29 469.178 1349.83C474.964 1344.6 479.976 1340.09 483.165 1337.68C484.191 1336.93 485.398 1336.02 486.697 1335.09C496.493 1327.96 512.872 1316.04 513.875 1306.84C513.989 1305.91 514.08 1304.84 514.194 1303.68C515.378 1291.82 517.565 1269.77 528.933 1265.67C530.232 1265.2 531.439 1264.74 532.601 1264.31C542.465 1260.62 547.409 1258.78 557.546 1263.85C564.085 1267.11 572.628 1268.31 580.965 1267.15C591.513 1265.67 601.264 1260.46 609.146 1252.09C611.515 1249.58 614.363 1246.51 617.666 1242.96C639.491 1219.54 676.009 1180.33 685.486 1177.58C687.992 1176.85 690.133 1176.53 692.184 1176.21C699.109 1175.17 705.647 1174.16 724.943 1158.1C742.166 1143.76 753.556 1137.57 760.368 1133.88C763.557 1132.15 765.835 1130.9 767.453 1129.56C770.209 1127.28 772.966 1124.51 772.761 1121.07C772.533 1117.5 769.161 1113.88 762.464 1109.99C757.657 1107.19 752.394 1104.96 747.291 1102.8C735.969 1097.99 725.262 1093.44 722.392 1083.75C720.41 1077.03 717.926 1073.64 715.944 1070.91C713.78 1067.95 712.072 1065.61 712.072 1060.44C712.072 1049.93 708.222 1017 691.09 1004.23C682.934 998.156 677.376 990.919 675.052 983.341C672.888 976.286 673.526 969.231 676.875 962.927C694.052 930.656 711.479 908.399 727.267 898.568C752.44 882.888 765.334 860.608 770.756 848.728C774.72 840.058 782.078 831.159 788.571 823.308C793.15 817.755 797.479 812.521 800.167 807.969C802.171 804.555 803.698 801.688 805.042 799.162C808.072 793.472 810.077 789.695 814.2 786.258L814.61 785.917C820.396 781.069 824.976 777.246 825.181 770.373C825.272 767.21 822.219 763.091 818.005 757.401C812.742 750.278 805.52 740.515 799.574 726.405C796.613 719.396 794.175 714.298 792.034 709.815C786.407 698.049 783.559 692.155 781.896 672.765C780.871 660.976 778.365 648.46 774.424 635.556C770.483 622.698 766.359 613.572 764.787 610.249C759.616 599.439 751.347 570.81 758.819 551.42C766.633 531.143 774.333 519.241 788.229 505.927C802.604 492.159 804.017 485.536 804.404 470.107C804.586 462.779 803.06 444.572 800.6 424.796C797.934 403.29 794.881 385.584 792.467 377.46C789.642 367.947 786.202 356.909 781.236 346.031C775.312 333.105 768.66 323.592 760.892 316.969C756.746 313.419 752.713 310.392 748.795 307.457C736.311 298.08 726.469 290.684 723.963 274.64C722.278 263.762 722.414 251.245 724.328 240.321C725.854 231.628 729.226 219.771 736.653 212.648C737.45 211.874 738.27 211.1 739.067 210.326C751.05 198.879 763.421 187.045 760.71 170.477C760.3 167.997 759.889 165.22 759.434 162.262C756.586 143.6 752.691 118.043 744.74 106.346C743.578 104.639 742.257 102.614 740.844 100.474C735.787 92.8049 729.522 83.2694 722.71 75.2131C714.646 65.6776 707.88 60.6709 702.002 59.8971C694.576 58.8958 688.63 59.8516 683.299 62.8556C678.515 65.5638 674.072 69.9333 668.491 77.4662C662.705 85.2493 642.11 111.557 619.83 122.845C610.422 127.624 599.236 135.726 589.144 145.102C578.983 154.524 571.785 163.513 569.415 169.749C567.752 174.119 566.841 178.875 565.953 183.495C564.153 192.803 562.467 201.587 555.018 205.502C551.464 207.39 548.502 208.46 545.882 209.416C540.346 211.441 535.95 213.034 529.799 220.909C527.224 224.186 523.306 225.961 517.839 226.325C512.986 226.644 507.587 225.847 502.37 225.073C496.447 224.209 490.866 223.389 486.742 224.3C475.192 226.826 447.581 224.686 433.092 221.136C425.369 219.247 410.972 213.148 398.078 206.298C388.965 201.473 373.041 192.234 368.69 184.701C363.814 176.258 363.222 165.084 362.744 156.117C362.493 151.543 362.288 147.583 361.582 144.647C360.944 141.962 360.078 140.437 358.985 140.027C357.345 139.413 355.294 141.37 353.13 143.418C352.469 144.033 351.809 144.693 351.125 145.284C349.576 146.65 346.956 147.173 343.926 147.788C338.413 148.926 331.556 150.337 327.456 157.528C323.355 164.697 318.32 167.2 312.488 170.136C309.231 171.752 305.882 173.436 302.282 176.076C297.362 179.694 296.359 186.544 295.197 194.464C293.922 203.158 292.486 213.034 285.72 221.819C275.036 235.678 267.974 252.36 262.301 265.764C261.048 268.7 259.886 271.454 258.793 273.912C256.788 278.395 255.239 285.427 253.439 293.574C251.708 301.357 249.771 310.165 247.106 317.789C244.053 326.55 240.522 332.399 236.308 335.676C232.048 338.999 228.585 342.595 224.894 346.418C216.215 355.407 207.262 364.715 186.872 371.702C170.014 377.482 164.068 383.263 158.305 388.839C154.181 392.821 150.286 396.599 142.631 400.013C132.083 404.723 131.058 411.596 130.079 418.242C129.35 423.18 128.643 427.868 124.156 431.509C119.44 435.333 113.221 443.389 106.637 451.923C98.6178 462.301 90.3482 473.02 84.9035 475.66C69.23 483.261 59.3657 490.361 54.6727 497.416C52.7363 500.352 51.3922 503.288 50.0937 506.155C47.2005 512.527 44.4667 518.535 35.6504 524.134C28.9982 528.344 25.3305 531.052 22.4828 535.103C19.4985 539.336 17.4937 545.048 14.8511 554.06C11.8895 564.187 7.85724 566.213 4.18945 567.601" stroke="#33CC99" stroke-width="0.5" stroke-miterlimit="10"/>
<path d="M2.09352 568.398C1.7518 568.534 1.3873 568.693 1.06836 568.853" stroke="#33CC99" stroke-width="0.5" stroke-miterlimit="10"/>
<path d="M510.708 1355.07C516.677 1348.88 519.82 1343.76 523.557 1341.21C532.327 1335.22 548.684 1328.85 563.128 1323.23C572.582 1319.54 581.512 1316.08 587.618 1313.01C602.79 1305.41 630.811 1281.26 652.84 1251.52C669.835 1228.58 689.974 1213.38 702.002 1204.3C705.328 1201.79 708.199 1199.61 710.249 1197.86C711.046 1197.17 711.867 1196.44 712.732 1195.67C721.617 1187.8 733.691 1177.1 764.719 1177.1C765.585 1177.1 766.45 1177.1 767.339 1177.12C770.938 1177.19 774.31 1177.26 777.272 1177.35C782.693 1177.49 787.295 1177.58 791.328 1177.58C807.844 1177.58 814.542 1175.76 827.094 1165.9C831.901 1162.15 836.776 1157.42 841.925 1152.43C855.183 1139.62 868.898 1126.37 881.587 1129.56C896.372 1133.27 923.391 1140.39 938.426 1146.54C939.907 1147.15 941.365 1147.74 942.777 1148.33C955.079 1153.43 964.807 1157.46 977.974 1157.76C978.863 1157.76 979.751 1157.8 980.64 1157.82C987.679 1158.03 994.947 1158.23 1001.89 1156.14C1009.78 1153.77 1016.02 1148.74 1021.01 1140.73C1026.93 1131.22 1029.64 1127.6 1032.01 1124.42C1034.47 1121.14 1036.59 1118.29 1041.49 1110.17C1042.83 1107.94 1044.09 1105.94 1045.29 1103.98C1052.86 1091.85 1057 1085.16 1051.01 1075.44C1047.53 1069.8 1037 1064.79 1024.17 1062.67C1017.43 1061.56 1010.3 1061.31 1003.6 1061.95C996.063 1062.65 989.069 1064.45 982.85 1067.27C959.658 1077.76 956.833 1077.38 943.324 1075.53C941.547 1075.28 939.542 1075.01 937.287 1074.74L936.649 1074.67C916.921 1072.23 880.175 1067.73 855.366 1047.24C833.382 1029.11 830.876 1008.58 828.461 988.712C828.119 985.958 827.778 983.113 827.39 980.359C825.818 969.299 824.429 962.426 821.536 957.738C818.506 952.845 813.767 950.228 806.568 947.361C798.458 944.129 791.783 939.555 787.25 934.116C782.101 927.971 779.96 921.121 780.917 913.793C782.511 901.39 791.897 883.002 798.094 870.849C799.711 867.686 801.101 864.955 802.08 862.861C806.409 853.644 819.986 827.677 830.534 818.369C832.129 816.958 833.792 815.57 835.387 814.205C844.59 806.422 854.09 798.388 861.426 782.139C863.02 778.612 864.569 775.607 865.913 772.945C871.928 761.202 874.684 755.831 864.296 739.468C858.555 730.41 849.602 723.037 840.922 715.914C830.124 707.038 819.941 698.663 815.817 687.489C815.385 686.329 814.952 685.168 814.519 683.962C807.069 663.912 796.886 636.443 803.424 611.296C804.358 607.678 805.201 604.514 805.953 601.715C810.669 583.873 811.945 579.071 814.701 550.282C816.569 530.756 823.221 518.353 828.575 508.385C832.448 501.171 835.797 494.958 836.617 487.79C837.072 483.898 837.665 480.712 838.234 477.64C839.214 472.451 840.125 467.535 840.057 460.412C839.988 452.515 838.69 442.638 836.024 429.37C828.552 392.116 825.249 374.478 825.158 361.779C825.089 353.086 824.155 345.03 822.401 337.816C819.85 327.37 815.59 319.018 809.758 312.964C805.657 308.708 799.939 304.27 793.879 299.582C780.575 289.25 765.494 277.53 763.899 264.513C761.689 246.511 770.095 225.346 778.137 206.913C784.835 191.574 786.452 183.381 782.944 165.084C779.618 147.788 774.059 118.84 766.792 96.1958C766.132 94.1249 765.494 92.0767 764.81 89.8919C758.226 68.7954 750.754 44.8542 731.846 38.6869C729.841 38.0269 727.973 37.4124 726.15 36.8207C709.178 31.1995 700.658 28.4003 688.88 30.5396C680.497 32.0643 672.455 42.1005 664.709 51.8181C660.358 57.2572 656.28 62.3777 652.225 65.8824C649.286 68.4541 646.188 71.3443 642.885 74.4166C633.681 83.0191 623.247 92.7822 613.224 97.7889C609.761 99.5185 605.865 100.611 601.742 101.772C595.796 103.433 589.03 105.344 582.355 109.6C574.701 114.47 568.276 121.73 562.718 131.789C560.121 136.477 557.797 140.801 555.564 144.989C543.467 167.564 536.155 181.196 520.322 185.771C503.623 190.618 484.942 190.186 459.746 184.405C458.06 184.018 456.466 183.654 454.939 183.313C436.213 179.103 428.468 177.35 412.726 161.647C407.805 156.732 405.914 151.361 406.962 145.216C407.873 139.8 410.858 134.52 413.751 129.445C416.849 123.983 419.788 118.817 419.674 114.152C419.515 106.3 417.578 97.4475 414.366 89.8919C412.407 85.2721 409.992 81.1302 407.213 77.58C404.046 73.5746 400.378 70.3202 396.278 67.9079C390.332 64.4032 384.728 59.5785 379.328 54.8904C374.203 50.4754 369.373 46.288 364.885 43.8301C359.85 41.0764 355.864 40.8489 352.401 43.1019C342.104 49.7699 335.771 61.7633 332.467 80.8571C329.688 96.8558 325.542 104.73 316.042 112.081C308.16 118.18 292.099 155.776 284.376 173.845C282.987 177.077 281.916 179.626 281.118 181.401C279.934 184.064 278.43 187.728 276.699 191.983C270.411 207.277 261.823 228.237 256.332 232.356C251.252 236.134 246.605 247.194 242.504 256.957C240.909 260.78 239.383 264.399 237.994 267.198C235.898 271.408 232.663 276.87 229.223 282.651C224.598 290.457 219.791 298.513 217.08 304.748C212.091 316.15 203.981 324.138 193.023 328.508C189.242 330.01 183.865 331.739 178.17 333.583C166.073 337.497 152.359 341.935 145.752 346.509C135.979 353.291 127.254 365.444 124.087 376.777C123.108 380.236 122.789 382.375 122.561 383.946C122.014 387.541 121.923 388.201 115.635 395.097C110.76 400.491 105.748 409.776 100.919 418.788C96.7725 426.48 92.8769 433.762 89.2774 438.132C84.7895 443.617 81.3723 449.875 78.6386 454.927C76.6338 458.614 74.9024 461.8 73.3078 463.621C70.2095 467.171 65.4027 469.538 58.6138 470.858C53.1008 471.927 47.0182 478.732 42.7125 488.677C41.414 491.658 40.5255 494.48 39.6826 497.211C37.6779 503.606 35.9693 509.114 29.8639 512.3C27.6769 513.438 25.9227 514.166 24.3964 514.826C19.954 516.692 17.7215 517.602 13.6892 525.249C11.0921 530.165 9.52022 535.717 8.15335 540.633C6.67257 545.89 5.48794 550.055 3.61988 551.398C3.02756 551.83 2.16188 552.262 1.13672 552.695" stroke="#33CC99" stroke-width="0.5" stroke-miterlimit="10"/>
<path d="M330.417 1C330.417 1 330.371 1.1593 330.349 1.25034C329.574 4.95986 329.027 8.62387 328.481 12.1741C327.159 21.0041 325.929 29.3562 321.305 37.6856C316.156 46.9708 315.176 52.6147 313.673 61.1944C313.286 63.4702 312.83 66.0646 312.26 68.9548C310.21 79.2413 304.697 95.9911 299.799 110.761C298.204 115.608 296.678 120.205 295.334 124.416C289.502 142.69 281.346 164.082 276.858 174.232C272.894 183.199 260.82 210.508 253.006 221.091C249.612 225.711 246.605 232.174 243.712 238.409C240.112 246.147 236.718 253.475 232.617 257.549C230.088 260.052 228.061 261.645 226.261 263.033C222.684 265.81 219.837 267.995 215.486 275.687C210.018 285.359 198.331 304.817 193.365 309.186C190.836 311.417 185.392 312.076 179.628 312.782C174.844 313.374 169.9 313.965 166.073 315.513C161.289 317.425 160.173 319.564 158.988 321.817C158.1 323.524 157.166 325.276 154.523 326.937C151.744 328.712 148.805 329.395 145.98 330.078C142.699 330.852 139.305 331.671 136.23 334.174C133.633 336.291 127.869 342.959 115.157 362.599C113.471 365.193 113.334 369.108 113.198 373.227C113.084 376.686 112.947 380.282 111.899 383.331C110.304 387.974 101.26 400.582 93.9931 410.709C90.8265 415.124 88.1155 418.924 86.4981 421.36C84.2199 424.841 80.575 432.443 76.7249 440.522C71.6903 451.081 66.4733 462.005 63.8991 464.372C61.3703 466.716 58.2949 467.444 55.3105 468.172C52.9185 468.741 50.6859 469.287 48.7951 470.585C44.8767 473.316 33.8278 495.254 29.2488 504.585C27.8819 507.361 25.9683 507.725 23.5535 508.203C21.5487 508.59 19.2706 509.023 16.6507 510.911C11.1604 514.894 7.46988 521.926 4.23494 528.116L3.75653 529.049C3.20978 530.096 2.23019 530.984 1 531.758" stroke="#33CC99" stroke-width="0.5" stroke-miterlimit="10"/>
<path d="M365.796 1C369.943 6.07499 372.79 11.1955 373.838 15.5422C376.39 26.2157 379.898 30.7672 388.487 38.209L388.965 38.6187C397.804 46.3108 421.246 66.7018 425.597 77.489C427.625 82.5185 434.505 96.7193 442.843 111.193C449.723 123.164 459.336 138.321 466.011 142.622C473.37 147.355 485.284 148.129 491.708 148.175C491.891 148.175 492.073 148.175 492.255 148.175C501.231 148.175 509.911 146.832 513.556 144.875C516.335 143.373 518.385 141.916 520.185 140.642C523.078 138.594 525.561 136.841 529.913 135.59C537.317 133.473 554.699 122.049 558.799 117.224C560.872 114.766 569.324 107.324 578.437 99.9054C589.03 91.2802 597.277 85.3177 600.534 83.9522C610.991 79.5372 630.378 69.7968 636.711 61.2854C643.295 52.4554 655.187 43.8985 661.565 39.3014L662.477 38.6414C664.094 37.4808 666.031 35.6601 668.286 33.5664C674.414 27.8542 682.046 20.7538 689.199 20.7538C690.156 20.7538 691.386 20.7538 692.821 20.7538C706.604 20.7538 739.66 21.1179 745.902 28.9011C748.863 32.5878 756.518 42.3509 763.648 53.6843C772.146 67.2025 777.021 78.2855 778.137 86.6149C778.957 92.8277 779.504 99.3592 780.051 105.64C781.213 119.477 782.329 132.517 786.111 143.009C786.999 145.489 787.979 147.924 788.89 150.291C793.879 163.013 798.595 175.006 794.562 192.097C793.127 198.174 791.236 203.886 789.414 209.416C787.25 215.925 785.222 222.092 784.151 228.168C782.944 234.996 783.149 240.731 784.744 246.261C787.204 254.772 791.646 263.898 798.321 274.207C804.677 284.039 812.879 294.667 823.426 306.751C838.621 324.138 839.51 335.858 840.695 352.062C841.105 357.524 841.56 363.737 842.631 370.814C844.431 382.626 847.164 396.963 849.807 410.845C853.475 430.053 856.938 448.191 857.826 458.887C858.532 467.444 857.507 478.641 854.773 492.182C851.903 506.405 847.848 519.719 844.932 528.389C837.71 549.987 837.984 559.568 838.508 578.684C838.508 579.435 838.553 580.186 838.576 580.96C838.849 590.45 834.475 599.872 830.261 609.02C827.755 614.459 825.158 620.081 823.586 625.611C821.832 631.824 821.558 637.308 822.789 642.338C823.381 644.75 823.973 647.322 824.611 650.075C829.349 670.375 835.842 698.185 847.233 705.787C850.217 707.766 853.52 709.633 857.051 711.613C868.351 717.962 881.154 725.153 883.956 738.353C885.938 747.684 887.009 758.653 886.849 767.688C886.69 775.38 885.574 785.462 881.108 789.695C873.408 797 851.242 823.194 843.018 836.12C841.059 839.216 839.054 841.605 837.3 843.699C831.81 850.276 828.188 854.623 832.425 871.281C835.455 883.252 840.398 898.022 845.319 909.81C849.602 920.074 855.912 933.137 861.699 936.983C867.713 940.988 879.81 960.856 886.508 972.371C895.62 988.052 905.712 1007.1 911.043 1018.73C915.28 1027.97 921.887 1035.5 930.681 1041.12C937.765 1045.65 944.782 1047.97 949.452 1049.34C959.954 1052.39 973.988 1047.81 986.358 1043.76C993.921 1041.28 1000.48 1039.14 1005.04 1039.14C1005.18 1039.14 1005.31 1039.14 1005.43 1039.14C1009.73 1039.28 1017.7 1038.73 1026.91 1038.1C1043.24 1036.98 1063.54 1035.59 1076.98 1036.89C1083.45 1037.5 1089.63 1040.21 1094.59 1042.35C1099.49 1044.49 1103.36 1046.18 1105.18 1044.79C1106.96 1043.47 1107.65 1040.17 1108.33 1036.98C1109.06 1033.54 1109.81 1029.99 1111.91 1029.06C1112.25 1028.9 1112.59 1028.74 1112.93 1028.58C1116.83 1026.79 1121.66 1024.56 1123.66 1029.58C1125.85 1035.07 1123 1049.2 1121.36 1053.78C1119.77 1058.19 1113 1063.97 1107.62 1066.77C1105.03 1068.11 1103.04 1071.66 1100.92 1075.42C1098.74 1079.29 1096.48 1083.29 1093.29 1085.57C1092.77 1085.96 1092.06 1086.43 1091.22 1087.03C1081.93 1093.58 1057.25 1110.97 1052.58 1120C1050.12 1124.78 1047.78 1131.56 1045.52 1138.12C1043.15 1145.01 1040.92 1151.5 1038.82 1154.66C1036.59 1158.05 1033.15 1161.65 1029.62 1164.29C1026.75 1166.45 1022.51 1168.93 1018.34 1168.93C1018.09 1168.93 1017.86 1168.93 1017.61 1168.91C1013.38 1168.59 1005.81 1168.73 997.817 1168.86C991.233 1168.98 984.421 1169.09 979.432 1168.93C975.696 1168.82 971.003 1169.2 966.014 1169.61C956.378 1170.39 946.422 1171.21 941.866 1168.63C934.28 1164.36 923.345 1159.24 915.485 1157.71C907.125 1156.1 878.398 1155.03 874.844 1160.67C873.181 1163.31 866.984 1169.75 859.762 1176.37C853.68 1181.95 846.139 1188.23 843.246 1189.19C837.209 1191.19 819.44 1190.21 793.241 1186.45C778.707 1184.38 764.149 1183.61 752.258 1184.34C739.25 1185.11 730.547 1187.57 727.084 1191.39C724.214 1194.58 721.252 1198.68 718.086 1203C713.097 1209.85 707.948 1216.95 702.412 1221.61C698.266 1225.1 689.381 1235.47 679.221 1248.7C669.311 1261.58 660.973 1273.55 657.966 1279.21C650.972 1292.37 626.596 1310.44 616.436 1317.58C611.47 1321.09 605.273 1323.87 598.712 1326.82C587.959 1331.67 576.819 1336.68 570.691 1345.28C568.458 1348.42 561.67 1351.65 556.043 1355" stroke="#33CC99" stroke-width="0.5" stroke-miterlimit="10"/>
<path d="M319.801 1C317.363 9.71624 314.835 14.8367 306.36 24.9412C300.05 32.474 299.708 45.1274 299.366 57.3483C299.116 66.5197 298.888 75.1677 296.245 81.5171C293.557 88.0031 289.957 100.452 286.153 113.651C281.278 130.56 275.742 149.745 271.208 159.144C268.224 165.334 264.078 175.12 259.681 185.452C252.163 203.18 244.372 221.523 240.682 226.211C238.039 229.579 235.852 233.517 233.574 237.681C230.863 242.574 228.084 247.649 224.439 251.677C222.525 253.816 220.748 255.501 219.039 257.162C214.939 261.099 211.408 264.49 208.469 271.499C207.694 273.343 206.965 275.436 206.168 277.667C202.751 287.384 198.491 299.469 186.849 303.406C180.038 305.727 174.138 306.364 168.943 306.933C163.203 307.548 158.692 308.048 155.092 310.552C154.523 310.939 153.794 311.439 152.951 312.031C143.838 318.335 119.645 335.039 113.995 342.845C112.628 344.734 111.375 346.327 110.145 347.852C105.908 353.2 102.855 357.046 101.283 365.967C101.169 366.581 101.055 367.196 100.964 367.833C99.0277 378.825 97.228 389.225 89.9608 400.035C82.2835 411.437 72.7381 425.638 68.7058 440.021C64.6508 454.449 63.4889 457.226 58.067 459.797C56.9507 460.321 55.6977 460.753 54.3536 461.208C51.6655 462.119 48.6355 463.143 45.4917 465.373C41.8467 467.945 38.794 471.609 36.1286 476.593C33.2126 482.055 31.823 485.696 30.7978 488.358C29.2031 492.546 28.5197 494.275 24.3052 496.961C22.3232 498.235 20.364 499.35 18.4732 500.42C13.7802 503.105 9.36065 505.632 5.23724 509.978C3.77924 511.526 2.41236 512.687 1.02271 513.574" stroke="#33CC99" stroke-width="0.5" stroke-miterlimit="10"/>
<path d="M391.061 1C391.289 1.29585 391.516 1.5917 391.744 1.91031" stroke="#33CC99" stroke-width="0.5" stroke-miterlimit="10"/>
<path d="M394.296 5.66534C396.323 8.89695 398.237 12.4699 400.196 16.1567C406.484 27.9225 413.591 41.2813 429.014 53.7526C441.612 63.9481 447.991 76.5332 453.641 87.639C458.584 97.3566 462.844 105.777 470.157 110.67C477.242 115.404 485.854 117.657 495.103 117.156C502.643 116.746 510.366 114.561 516.791 111.011C522.417 107.916 528.432 106.983 534.264 106.073C540.187 105.14 545.814 104.275 550.279 101.157C553.354 99.0179 555.359 97.0835 557.501 95.058C561.533 91.1892 565.702 87.2066 577.548 81.1302C586.57 76.4876 595.728 70.3886 604.612 64.4715C613.656 58.4407 622.997 52.2051 632.246 47.4942C643.158 41.9413 653.638 33.225 662.864 25.5329C669.06 20.3896 674.892 15.5195 679.859 12.4927C686.443 8.48731 691.067 6.84875 696.421 6.62117C696.808 6.62117 697.195 6.59841 697.583 6.59841C703.392 6.59841 710.181 8.28249 718.496 10.8086C729.294 14.0857 740.229 10.7176 749.866 7.75906C757.816 5.32398 765.311 3.00268 771.599 4.68676C781.076 7.21287 780.916 19.1835 780.757 31.8368C780.689 37.6628 780.598 43.6936 781.532 48.8141C782.42 53.7526 783.969 57.9855 785.587 62.4461C789.232 72.4368 793.742 84.8853 793.651 112.491C793.537 142.053 797.023 148.926 801.032 156.868C802.445 159.69 803.926 162.603 805.338 166.7C808.322 175.302 806.955 191.301 805.52 208.255C804.358 221.956 803.151 236.111 804.472 246.011C806.409 260.576 823.54 277.826 837.3 291.685C844.089 298.536 849.944 304.43 852.677 308.708C860.469 320.952 860.605 333.492 860.856 356.272C860.856 357.478 860.879 358.707 860.901 359.982C861.061 373.409 864.25 391.342 867.599 410.345C870.515 426.73 873.5 443.662 875.026 459.866C877.486 486.151 870.242 508.135 864.957 524.202C863.111 529.8 861.517 534.648 860.583 538.813C858.031 550.351 860.56 562.071 862.77 572.403C863.704 576.75 864.592 580.846 865.048 584.692C866.073 593.09 860.104 606.972 854.842 619.239C851.88 626.157 849.078 632.666 847.734 637.65C845.684 645.228 846.526 655.082 850.08 665.392C852.085 671.218 854.933 677.135 858.532 683.006C862.473 689.424 867.349 695.773 872.998 701.918C895.506 726.314 901.384 743.86 903.275 762.681C905.097 780.637 895.005 798.32 890.153 806.809C888.512 809.676 886.576 812.657 884.503 815.821C879.195 823.945 873.727 832.32 873.841 838.624C874.001 847.841 882.179 860.585 891.018 872.965C895.142 878.746 897.557 884.959 900.883 893.561C905.484 905.418 911.772 921.667 926.648 947.361C949.338 986.527 981.916 994.811 1008.09 1001.48C1011.6 1002.37 1014.93 1003.21 1018.14 1004.12C1029.21 1007.21 1040.42 1008.17 1051.47 1007.01C1060.81 1006.01 1068.26 1003.73 1073.7 1002.07C1074.48 1001.84 1075.2 1001.62 1075.89 1001.41C1086.6 998.224 1140.61 960.333 1146.74 956.009C1151.73 952.481 1156.69 946.2 1160.68 938.28C1164.96 929.814 1167.97 919.915 1169.41 909.628C1171.05 897.908 1174.96 885.824 1178.43 875.173C1181.32 866.275 1183.8 858.605 1184.26 853.234C1185.28 841.309 1187.79 838.624 1196.36 831.205C1200.55 827.564 1205.54 820.873 1210.82 813.772C1216.61 805.989 1223.17 797.182 1229.68 791.128C1239.73 781.775 1246.63 764.707 1251.19 753.419C1252.28 750.711 1253.24 748.344 1254.08 746.455C1256.2 741.721 1257.96 732.914 1258.91 722.24C1259.85 711.886 1259.82 701.554 1258.87 694.613C1257.8 686.92 1255.22 677.112 1252.92 668.464C1250.85 660.59 1248.87 653.148 1248.32 648.414C1247.59 641.996 1251.37 632.142 1255.36 621.697C1257.55 616.007 1259.8 610.136 1261.3 604.787C1265.45 589.949 1293.43 552.513 1301.26 545.367C1303.91 542.954 1308.03 540.406 1312.4 537.697C1320.79 532.509 1330.29 526.66 1333.32 519.514C1335.21 515.031 1338.1 512.823 1341.22 513.46C1345 514.211 1347.99 518.899 1348.65 525.112C1350.04 537.97 1354.37 569.9 1357.74 585.079C1360.4 597.073 1361.02 610.773 1361.82 628.137C1362.07 633.531 1362.32 639.106 1362.66 645.183C1363.14 653.967 1364.89 661.727 1368.01 668.851C1370.7 675.018 1373.94 679.683 1376.78 683.803C1378.63 686.488 1380.25 688.809 1381.43 691.153C1386.35 700.78 1386.88 705.058 1381.43 718.872C1377.92 727.793 1373.14 734.029 1367.63 741.22C1364.57 745.203 1361.11 749.732 1357.49 755.194C1352.36 762.954 1347.58 775.562 1342.54 788.898C1337.71 801.643 1332.72 814.797 1327.19 824.173C1321.79 833.299 1317.28 845.36 1312.52 858.127C1307.51 871.554 1302.33 885.437 1296.02 895.518C1289.49 905.942 1275.95 912.61 1265.75 916.342C1253.49 920.825 1241.78 922.782 1236.91 923.01C1232.03 923.237 1226.29 924.808 1220.75 927.448C1215.31 930.042 1210.66 933.387 1207.63 936.824C1203.08 942.013 1198.29 944.744 1194.05 947.156C1192.53 948.021 1191.09 948.84 1189.75 949.728C1186.56 951.821 1185.47 960.879 1184.3 970.483C1183.58 976.605 1182.8 982.954 1181.46 987.801C1177.99 1000.25 1160.13 1032.38 1150.11 1044.17C1146.62 1048.27 1141.79 1055.87 1136.19 1064.65C1131.16 1072.57 1125.44 1081.54 1120.13 1088.76C1114.05 1097.02 1109.38 1101.77 1105.87 1103.27C1093.91 1108.42 1071.29 1124.92 1061.63 1131.97L1061.24 1132.27C1056.36 1135.82 1053.74 1146.9 1051.22 1157.62C1048.66 1168.36 1046.27 1178.51 1041.81 1181.42C1033.99 1186.5 1021.42 1186.73 1003.38 1182.11C987.77 1178.1 975.833 1176.83 961.025 1182.11C950.91 1185.73 943.484 1185.84 933.483 1185.84C932.89 1185.84 932.298 1185.84 931.706 1185.84C927.218 1185.84 922.183 1185.84 916.214 1186.2C905.644 1186.8 893.752 1194.06 881.154 1201.72C870.037 1208.51 858.555 1215.52 848.098 1217.45C832.516 1220.34 828.78 1216.34 822.561 1209.69C820.032 1206.98 817.161 1203.91 812.947 1200.7C808.322 1197.17 803.698 1194.87 798.823 1193.67C794.471 1192.58 790.302 1192.44 786.293 1192.3C782.921 1192.19 779.436 1192.08 775.813 1191.39C763.42 1189.12 743.646 1192.53 736.721 1196.83C732.757 1199.29 730.365 1205.16 727.836 1211.35C725.922 1216.04 723.94 1220.91 721.138 1224.69C717.949 1228.99 712.504 1233.81 706.741 1238.93C700.726 1244.28 694.507 1249.79 690.543 1255.02C687.126 1259.53 683.025 1269.09 678.651 1279.22C673.184 1291.89 667.557 1304.98 662.841 1309.14C661.52 1310.33 660.267 1311.44 659.059 1312.53C652.681 1318.29 647.646 1322.84 638.42 1327.03C630.287 1330.74 616.459 1339.61 604.293 1347.47C601.058 1349.56 597.937 1351.56 595.181 1353.31" stroke="#33CC99" stroke-width="0.5" stroke-miterlimit="10"/>
<path d="M593.177 1354.43C593.177 1354.43 593.04 1354.52 592.972 1354.57C592.721 1354.73 592.493 1354.91 592.242 1355.07" stroke="#33CC99" stroke-width="0.5" stroke-miterlimit="10"/>
<path d="M1.04553 499.533C3.59703 499.146 5.39675 495.755 6.39913 493.866C9.8391 487.266 14.6915 485.104 19.8173 482.828C20.7969 482.396 21.822 481.941 22.8244 481.44C26.6517 479.574 30.1828 473.953 33.0304 469.447C34.7162 466.761 36.197 464.44 37.3589 463.439C38.5207 462.437 41.0039 461.527 43.8971 460.48C48.909 458.637 54.6043 456.566 56.1306 453.129C57.1102 450.922 58.1126 446.643 59.2744 441.705C60.9603 434.536 62.8739 426.434 65.2659 422.338C66.405 420.404 68.4097 417.195 70.7562 413.508C76.9071 403.79 85.3134 390.5 87.6827 384.287C90.3253 377.346 91.396 370.223 92.2617 364.51C92.4667 363.122 92.6718 361.825 92.8768 360.619C93.8336 355.043 95.4511 347.351 98.7316 344.916C99.7567 344.142 103.014 340.729 107.161 336.405C115.726 327.461 128.666 313.92 133.541 311.621C140.649 308.276 166.939 299.628 174.115 298.035C176.871 297.42 181.063 296.055 185.505 292.914C189.629 289.979 192.932 286.246 195.301 281.831C196.691 279.237 198.035 276.347 199.448 273.297C203.184 265.218 207.056 256.889 212.205 253.43C218.265 249.379 222.229 241.664 225.418 235.474C225.988 234.381 226.512 233.334 227.036 232.356C230.658 225.62 241.707 202.02 244.828 193.167C246.696 187.887 253.097 172.867 259.294 158.325C263.645 148.106 267.746 138.48 270.229 132.358C270.912 130.697 271.55 129.126 272.143 127.647C276.881 115.995 279.501 109.555 281.392 101.203C282.28 97.2655 283.032 88.7085 283.807 79.6509C284.9 66.9976 286.153 52.6602 288.112 46.8569C288.887 44.5356 289.661 41.8957 290.481 39.0965C293.192 29.8113 296.268 19.2972 301.257 15.2919C307.271 10.5127 307.795 8.62382 309.162 3.57159C309.276 3.11643 309.413 2.63852 309.549 2.11509C309.641 1.79648 309.732 1.43235 309.8 1.04547" stroke="#33CC99" stroke-width="0.5" stroke-miterlimit="10"/>
<path d="M670.974 1C669.288 3.79921 667.375 6.64394 664.914 9.1473C655.916 18.2732 636.552 31.0631 621.357 39.711C615.274 43.1702 610.809 46.0377 606.48 48.8142C598.985 53.6161 592.515 57.758 580.396 63.1516C570.281 67.6576 560.029 72.7326 551.008 77.1931C543.057 81.1302 536.2 84.5212 531.348 86.5921C519.707 91.5533 496.424 96.5373 480.022 89.983C467.788 85.0901 456.101 68.0673 446.693 54.3671C443.002 48.9735 439.813 44.3309 437.056 41.0765C429.561 32.2465 420.973 14.3816 414.138 1" stroke="#33CC99" stroke-width="0.5" stroke-miterlimit="10"/>
<path d="M446.602 1C450.611 16.0202 457.628 42.1006 461.569 46.3791C462.981 47.9038 464.029 49.2238 464.963 50.3844C467.31 53.2974 468.586 54.8905 471.798 55.2319C473.142 55.3684 476.012 55.9373 479.634 56.6428C487.836 58.2586 499.044 60.4434 502.416 59.6014C503.714 59.2827 505.97 58.509 508.817 57.5076C516.563 54.845 528.272 50.7941 536.269 50.4755C547.545 50.0203 555.974 47.9266 562.057 44.126C568.094 40.3482 593.541 23.0978 598.029 19.6614C599.327 18.6828 601.833 16.3843 605 13.5168C609.078 9.80727 614.294 5.09641 619.215 1" stroke="#33CC99" stroke-width="0.5" stroke-miterlimit="10"/>
<path d="M459.131 1C461.933 9.03351 464.849 18.387 467.834 28.9466C470.727 39.1648 487.152 39.9159 500.342 40.5303C504.625 40.7351 508.68 40.9172 511.619 41.4179C513.988 41.8275 515.834 42.2144 517.474 42.533C523.83 43.8302 525.971 44.2626 537.02 42.1006C547.978 39.9614 556.84 33.5209 564.677 27.877C566.727 26.3977 568.663 24.9867 570.509 23.7578C576.979 19.4566 587.299 9.53418 596.024 1.02276" stroke="#33CC99" stroke-width="0.5" stroke-miterlimit="10"/>
<path d="M1095.21 1355.07C1095.53 1354.88 1095.84 1354.68 1096.19 1354.5" stroke="#33CC99" stroke-width="0.5" stroke-miterlimit="10"/>
<path d="M1100.2 1352.38C1103.43 1350.77 1106.85 1349.2 1109.06 1347.76C1113.07 1345.17 1116.55 1342.96 1118.53 1341.89C1120.18 1341.03 1122.7 1340.14 1125.62 1339.11C1130.86 1337.27 1137.37 1334.99 1143.82 1331.19C1151.48 1326.69 1157.1 1321.18 1161.07 1314.35C1170.23 1298.54 1170.82 1294.85 1172.37 1285.02C1172.78 1282.38 1173.26 1279.4 1173.96 1275.62C1175.67 1266.54 1178.47 1256.98 1181.82 1248.72C1185.28 1240.19 1189.04 1233.81 1192.41 1230.83C1194.51 1228.97 1198.2 1225.98 1202.48 1222.55C1212.6 1214.42 1226.45 1203.27 1230.5 1197.54C1233.47 1193.35 1237.73 1185.82 1242.21 1177.85C1246.43 1170.36 1250.8 1162.63 1254.36 1157.23C1261.74 1146.04 1273.88 1134.77 1280.9 1130.77C1287.66 1126.9 1321.06 1110.63 1340.7 1107.44C1360.11 1104.3 1367.6 1102.25 1379.77 1094.74C1388.4 1089.41 1400.38 1078.54 1410.02 1069.82C1413.99 1066.22 1417.43 1063.11 1420.18 1060.76C1421.05 1060.03 1421.89 1059.31 1422.76 1058.6C1431.55 1051.23 1440.64 1043.6 1447.13 1030.18C1449.39 1025.51 1450.69 1021.41 1451.96 1017.45C1454.6 1009.13 1456.91 1001.93 1467.22 993.741C1475.59 987.096 1477.93 981.52 1480.19 976.149C1481.96 971.894 1483.65 967.888 1488.3 963.86C1490.92 961.584 1494.06 958.694 1497.41 955.645C1507.27 946.655 1519.53 935.481 1527.14 931.248C1528.71 930.383 1530.33 929.473 1532.04 928.494C1541.45 923.146 1552.13 917.07 1559.44 916.319C1563.04 915.932 1566.98 917.047 1571.15 918.208C1576.78 919.778 1582.61 921.417 1587.56 919.027C1589.15 918.253 1590.56 917.525 1591.82 916.865C1597.31 913.998 1600.34 912.405 1607.33 914.043C1616.47 916.205 1627.67 918.549 1633.32 917.662C1635.49 917.32 1637.65 917.73 1639.72 918.117C1643.16 918.754 1646.74 919.437 1650.45 916.751C1651.66 915.887 1652.73 915.204 1653.67 914.589C1657.33 912.223 1658.84 911.244 1657.61 906.488C1656.13 900.798 1647.68 887.781 1643.55 882.569C1639.52 877.471 1623.8 861.541 1618.15 857.991C1615.55 856.352 1611.38 850.458 1606.74 841.787C1602.55 833.959 1598.79 825.379 1597.19 819.962C1593.82 808.515 1583.11 792.357 1573.32 783.937C1562.84 774.925 1556 767.073 1550.44 757.674C1548.08 753.692 1545.64 751.12 1543.06 748.412C1539.35 744.498 1535.5 740.447 1531.4 731.639C1523.88 715.436 1513.74 688.582 1510.44 673.448C1507.46 659.747 1506.18 651.668 1504.27 639.448C1503.97 637.536 1503.65 635.533 1503.31 633.371C1501.6 622.539 1503.11 607.518 1504.34 595.457C1504.91 589.904 1505.38 585.125 1505.43 581.734C1505.5 578.593 1505.38 575.202 1505.29 571.607C1505.06 563.141 1504.81 554.379 1506.57 548.007C1507.66 544.07 1510.08 536.924 1513.31 529.823C1515.77 524.452 1519.44 517.42 1523.08 514.53C1529.44 509.478 1533.38 507.338 1542.88 505.472C1546.18 504.835 1548.67 505.222 1550.65 505.563C1554.25 506.155 1556.44 506.519 1559.65 500.238C1562.5 494.708 1563.84 489.838 1563.91 484.922C1563.98 479.096 1562.22 473.202 1558.49 466.875C1551.04 454.245 1538.62 439.748 1526.14 436.949C1520.05 435.583 1513.72 433.512 1508.32 431.123C1502.65 428.596 1498.53 425.934 1496.73 423.613C1494.88 421.223 1489.94 411.118 1484.72 399.057C1478.91 385.652 1474.63 374.183 1473.28 368.379C1470.19 355.203 1464.63 319.382 1463.67 306.569C1463.26 300.925 1463.19 288.021 1463.51 272C1463.79 257.981 1464.26 246.261 1464.65 244.759C1465.4 241.664 1478.5 216.903 1483.1 211.032C1484.72 208.961 1486.98 207.004 1489.37 204.933C1493.88 201.018 1498.98 196.558 1502.35 189.503C1503.99 186.044 1505.36 183.404 1506.57 181.083C1509.21 175.939 1511.31 171.888 1514.93 162.307C1517.48 155.571 1518.32 148.835 1519.08 142.895C1519.9 136.318 1520.62 130.651 1523.31 126.532C1525.36 123.414 1528.01 121.434 1530.58 119.5C1534.5 116.564 1538.19 113.81 1538.89 107.461C1539.3 103.706 1539.19 100.884 1539.12 98.631C1538.96 94.6484 1538.89 92.4636 1541.95 90.3016C1544.77 88.3217 1549.26 87.821 1551.7 87.7073C1555.55 87.5252 1558.71 87.9804 1559.99 88.5038C1561.79 89.2093 1567.6 88.2307 1568.87 85.1584C1569.54 83.5653 1569.22 80.7889 1563.89 76.6242C1561.04 74.3939 1557.44 73.2788 1553.18 73.2788C1553.09 73.2788 1553 73.2788 1552.93 73.2788C1549.21 73.3243 1545.11 74.1891 1540.74 75.896C1532.88 78.9227 1525.95 83.9522 1523.81 87.07C1521.06 91.0527 1509.51 93.8746 1496.13 97.1062C1489.12 98.8131 1481.85 100.565 1475.15 102.682C1455.81 108.781 1444.12 112.445 1427.65 108.804C1426.2 108.485 1424.69 108.121 1423.23 107.78C1415.92 106.05 1408.38 104.252 1402.23 105.914C1398.93 106.824 1396.26 108.622 1394.1 111.444C1391.66 114.607 1389.91 118.931 1388.74 124.689C1385.19 142.007 1384.32 158.621 1383.64 171.957C1383.3 178.67 1382.98 184.473 1382.41 188.797C1382.21 190.254 1382.02 191.756 1381.82 193.212C1380.34 204.455 1378.79 216.107 1374.71 224.118C1370.11 233.152 1350.52 256.638 1344.52 262.601C1343.66 263.466 1342.77 264.285 1341.84 265.15C1336.19 270.407 1329.79 276.37 1326.8 291.39C1325.39 298.558 1324.77 305.704 1324.2 312.623C1323.36 322.591 1322.63 331.216 1319.69 337.338C1316.32 344.347 1307.57 355.134 1300.53 363.828C1297.12 368.061 1293.88 372.043 1291.81 374.934C1288.78 379.167 1281.53 384.628 1272.9 389.203C1263.88 394.005 1255.11 396.872 1249.44 396.872C1236.54 396.872 1226.79 393.094 1218.93 389.408C1217.82 388.884 1216.77 388.361 1215.77 387.883C1209.09 384.628 1205.06 382.648 1199.84 386.017C1199.18 386.449 1198.45 386.927 1197.65 387.45C1191.3 391.638 1180.64 398.67 1176.22 396.667C1173.85 395.598 1166.88 390.568 1159.5 385.22C1151.34 379.326 1142.11 372.658 1137.74 370.382C1133.52 368.197 1128.6 364.533 1123.91 360.05C1118.76 355.18 1114.18 349.672 1110.65 344.119C1107.96 339.909 1106.3 336.04 1104.84 332.627C1102.16 326.346 1100.01 321.407 1093.34 317.607C1087.96 314.557 1080.92 311.735 1073.47 308.754C1066.71 306.046 1059.69 303.224 1053.86 300.174C1047.94 297.079 1040.46 289.501 1033.81 279.92C1026.77 269.747 1021.74 258.8 1020.01 249.902C1019.25 246.011 1018.66 242.642 1018.14 239.661C1016.02 227.554 1014.86 220.886 1007.59 206.071C1002.62 195.966 1004.83 181.97 1006.98 168.452C1008.73 157.392 1010.37 146.923 1007.75 139.845C1006.54 136.591 1004.36 131.357 1000.73 124.871C997.02 118.225 992.737 111.922 987.998 106.164C982.235 99.1544 975.856 93.0098 969.044 87.9121C961.071 81.9495 952.437 77.3525 943.347 74.2802C931.113 70.1155 922.297 62.3323 917.103 51.1355C909.448 34.5905 911.909 14.7002 913.503 8.44181C913.709 7.66804 915.053 6.25706 916.123 4.27713" stroke="#33CC99" stroke-width="0.5" stroke-miterlimit="10"/>
<path d="M917.103 2.11513C917.217 1.75101 917.308 1.38688 917.399 1" stroke="#33CC99" stroke-width="0.5" stroke-miterlimit="10"/>
<path d="M1157.08 1355.07C1158.06 1354.34 1158.97 1353.63 1159.81 1352.93C1160.98 1351.95 1162.18 1351.06 1163.32 1350.2C1167.36 1347.19 1171.55 1344.07 1175.51 1336.66C1179.98 1328.28 1183.6 1315.38 1186.51 1297.19C1189.75 1277.14 1197.13 1260.03 1208.43 1246.33C1217.25 1235.63 1226.63 1229.33 1232.94 1225.89C1237.75 1223.28 1245.68 1218.06 1253.47 1211.21C1259.23 1206.16 1266.7 1198.63 1269.46 1191.55C1269.87 1190.51 1270.28 1189.41 1270.74 1188.25C1275.63 1175.44 1282.33 1157.87 1298.44 1147.74L1299.85 1146.86C1308.12 1141.67 1314.09 1137.91 1320.42 1135.32C1326.92 1132.65 1333.77 1131.24 1343.29 1130.58C1351.77 1130.01 1358.6 1131.06 1364.62 1131.99C1373.07 1133.29 1379.77 1134.34 1387.47 1130.58C1395.87 1126.49 1403.35 1117.66 1409.36 1110.53C1412.91 1106.32 1416.01 1102.68 1418.63 1100.68C1421.53 1098.5 1429.29 1093.83 1438.29 1088.44C1451.87 1080.29 1467.25 1071.05 1472.6 1066.38C1473.63 1065.47 1474.7 1064.63 1475.72 1063.81C1479.64 1060.67 1483.7 1057.44 1487.39 1050.16C1491.51 1041.99 1494.7 1029.52 1497.16 1011.99C1502.26 975.33 1533.38 957.078 1551.47 949.454C1551.83 949.295 1552.13 949.181 1552.34 949.09C1552.63 948.954 1553.06 948.772 1553.59 948.521C1587.4 932.727 1610.27 934.958 1623.48 939.6C1653.05 949.978 1674.65 951.116 1682.78 942.764C1683.56 941.967 1684.35 941.148 1685.15 940.351C1692.28 933.091 1699.66 925.581 1698.96 919.846C1698.52 916.342 1694.35 909.196 1688.09 901.208C1682.6 894.221 1672.92 883.275 1658 870.872C1646.33 861.154 1637.2 850.025 1630.11 836.871C1623.94 825.402 1620.47 814.523 1617.97 806.604C1613.85 793.632 1588.35 768.53 1569.74 750.21C1563.91 744.452 1558.85 739.491 1555.25 735.69C1548.23 728.248 1540.69 713.183 1534.59 694.362C1528.78 676.474 1525.16 657.904 1524.88 644.705C1524.61 631.937 1526.16 614.073 1529.05 596.868C1531.92 579.685 1535.68 565.735 1539.12 559.568C1546.75 545.845 1554.64 536.582 1570.26 532.873C1571.52 532.577 1572.77 532.281 1573.98 532.008C1588.54 528.64 1601.13 525.727 1599.36 510.843C1598.17 500.921 1590.59 489.041 1584.5 479.483C1580.63 473.429 1577.3 468.195 1576.28 464.645C1574.8 459.57 1572.66 452.902 1569.17 446.461C1564.89 438.564 1559.65 433.011 1553.54 429.962C1542.31 424.341 1512.49 409.434 1505.68 391.956C1504.56 389.112 1503.42 386.221 1502.19 383.195C1496.45 368.903 1489.96 352.676 1488.27 339.431C1487.45 332.9 1486.11 326.255 1484.83 319.814C1482.94 310.415 1481.01 300.698 1480.48 290.866C1480.3 287.407 1480.07 284.335 1479.85 281.376C1478.98 270.179 1478.41 262.783 1482.51 252.838C1484.93 247.012 1490.69 235.132 1497.66 222.82C1505.41 209.12 1512.01 199.653 1516.25 196.125C1525.41 188.524 1527.53 179.717 1529.42 171.979C1529.55 171.41 1529.69 170.841 1529.83 170.295C1530.9 165.949 1536.75 152.886 1543.43 141.074C1548.39 132.267 1557.85 117.11 1565.3 114.402C1567.05 113.765 1569.06 113.082 1571.18 112.354C1577.99 110.01 1586.46 107.097 1593.34 103.547C1601.41 99.3592 1605.64 95.1263 1606.33 90.5975C1606.92 86.5466 1607.35 78.4676 1603.46 69.7513C1599.68 61.2854 1592.93 54.5719 1583.41 49.77C1562.31 39.1648 1547.73 49.6789 1534.86 58.9414L1534.7 59.0551C1527.94 63.9253 1516.2 69.9789 1504.13 74.8263C1489.91 80.5158 1477.23 83.7701 1468.36 83.9749C1460.32 84.157 1455.49 84.999 1450.39 85.9094C1442.85 87.2293 1435.03 88.5948 1416.06 88.0486C1407.36 87.7983 1401.48 88.0486 1397.01 88.8451C1392.09 89.7327 1388.63 91.3485 1386.1 93.9429C1381.07 99.1316 1379.65 108.485 1378.67 125.007C1378.04 135.726 1377.95 145.626 1377.85 154.388C1377.67 172.753 1377.54 187.273 1372.89 199.266C1362.52 226.029 1350.38 244.235 1335.78 254.954C1331.9 257.776 1328.65 261.6 1326.07 266.288C1323.86 270.293 1322.09 275.072 1320.81 280.489C1318.46 290.365 1318.14 300.447 1317.89 307.821C1317.83 309.892 1317.76 311.69 1317.67 313.192C1317.32 318.54 1313.04 326.232 1305.91 334.311C1299.9 341.115 1292.95 346.782 1289.42 347.806C1285.73 348.876 1269.64 348.352 1253.56 346.646C1233.26 344.506 1217.04 341.047 1209.04 337.156C1200.64 333.059 1190.96 332.809 1181.62 332.536C1169.91 332.217 1158.86 331.898 1150.2 324.707C1141.89 317.789 1134.46 308.321 1127.92 299.947C1122.02 292.414 1116.44 285.291 1111.15 281.217C1107.3 278.236 1105.14 275.983 1103.43 274.162C1100.13 270.68 1098.49 268.95 1089.78 267.175C1075.82 264.308 1058.67 258.391 1049.8 237.772C1046.2 229.375 1043.17 224.277 1040.74 220.203C1037 213.922 1034.31 209.393 1032.1 197.696C1030.51 189.162 1030.99 177.35 1031.44 165.926C1032.06 150.769 1032.63 136.477 1028.85 128.831C1027.09 125.303 1025.2 120.774 1023.2 115.972C1017.39 102.067 1010.14 84.7715 1000.16 76.0552C997.749 73.9388 995.311 71.754 992.714 69.4555C980.982 58.9641 968.839 48.1086 957.631 42.533C943.871 35.6829 938.13 19.889 938.745 1.11377" stroke="#33CC99" stroke-width="0.5" stroke-miterlimit="10"/>
<path d="M973.851 1C978.225 9.87554 985.219 19.5021 999.07 29.9252C1016.54 43.0792 1023.83 55.2546 1030.26 65.9735C1033.22 70.912 1036 75.5773 1039.46 79.651C1044.34 85.3859 1048.07 94.5118 1050.58 106.756C1053.06 118.885 1053.72 131.129 1053.86 139.276C1053.86 140.642 1053.88 142.098 1053.9 143.623C1054 153.932 1054.11 168.042 1057.3 181.856C1059.03 189.389 1061.54 196.171 1064.73 201.974C1068.46 208.733 1073.25 214.468 1079.01 218.974C1089.85 227.486 1098.62 232.242 1106.37 236.43C1117.37 242.392 1126.08 247.103 1134.98 259.711C1144.87 273.684 1154.51 277.644 1164.71 281.854C1170.23 284.13 1175.92 286.474 1182.03 290.479C1187.81 294.28 1190.68 296.806 1192.78 298.649C1197.11 302.473 1198.27 303.497 1214.95 307.138C1229.48 310.324 1241.12 310.597 1250.46 310.825C1257.14 310.984 1262.9 311.121 1268.05 312.236C1269.46 312.554 1270.74 312.85 1271.99 313.146C1281.56 315.399 1286.36 316.537 1294.06 307.457C1298.71 301.995 1299.78 298.308 1300.81 294.758C1301.7 291.708 1302.54 288.818 1305.59 285.04C1307.64 282.537 1309.17 281.035 1310.4 279.829C1313.18 277.12 1314.2 276.119 1315.41 269.041C1317.03 259.483 1321.33 249.834 1326.94 243.257C1330.33 239.251 1337.01 231.172 1343.45 221.91C1352.18 209.416 1357.6 199.107 1359.56 191.255C1360.88 185.953 1362.54 181.56 1364.14 177.327C1366.12 172.093 1368.15 166.654 1369.52 159.576C1371.04 151.634 1371.57 142.326 1371.11 131.106C1370.66 120.228 1369.99 111.307 1369.47 104.116C1368.29 88.1852 1367.72 80.1744 1371.25 76.4649C1376.3 71.1623 1388.72 65.3818 1399.18 65.2453C1403.21 65.1998 1412.8 65.4729 1422.96 65.7915C1439.07 66.2694 1457.32 66.8156 1461.8 66.3149C1462.71 66.2011 1463.76 66.1328 1464.97 66.0418C1473.56 65.4046 1489.57 64.2212 1509.58 49.201C1517.37 43.3523 1523.13 38.5049 1527.75 34.5905C1536.89 26.8756 1541.9 22.6427 1550.83 20.3214C1551.65 20.1166 1552.43 19.9117 1553.2 19.7069C1565.18 16.5663 1571.77 14.814 1588.03 24.2812C1604.85 34.0671 1623.87 56.1194 1627.06 62.4233C1627.38 63.0378 1627.76 63.766 1628.2 64.517C1631.73 70.8665 1638.31 82.6778 1629.47 100.861C1620.59 119.136 1615.69 120.092 1608.92 121.412C1608.15 121.571 1607.35 121.707 1606.53 121.912C1598.83 123.642 1578.47 131.015 1573.8 139.026C1572.47 141.302 1570.47 143.623 1568.15 146.331C1565.28 149.677 1562.02 153.5 1559.1 158.279C1555.73 163.832 1553.52 169.613 1552.34 175.962C1549.44 191.437 1533.02 208.711 1524.2 217.996C1521.6 220.727 1519.74 222.684 1519.05 223.731C1518.89 223.981 1518.66 224.3 1518.44 224.664C1516.34 227.782 1511.44 235.064 1507.23 244.554C1501.97 256.388 1499.51 267.608 1499.92 277.894C1500.03 280.716 1500.12 283.379 1500.21 285.951C1500.9 306.865 1501.33 320.679 1515.79 353.45C1522.29 368.152 1526.39 376.777 1530.78 383.126C1535.04 389.294 1539.53 393.367 1547.67 400.741C1550.95 403.699 1554.66 407.068 1559.17 411.323C1585.98 436.516 1588.03 441.364 1596.67 461.8L1596.96 462.483C1601.36 472.883 1607.79 482.077 1613.46 490.179C1619.29 498.508 1623.89 505.085 1623.89 509.66C1623.89 512.527 1623.55 520.06 1620.36 527.98C1617.08 536.059 1611.95 541.817 1605.07 545.071C1601.32 546.846 1597.72 548.007 1594.25 549.099C1583.23 552.604 1573.73 555.608 1565.23 577.228C1562.97 582.963 1560.79 587.833 1558.67 592.566C1550.35 611.069 1544.34 624.427 1548.39 660.703C1550.9 683.074 1555.05 698.845 1561.86 711.84C1568.69 724.903 1578.37 735.44 1590.84 747.251C1603.78 759.54 1614 769.554 1621.84 778.52C1630 787.851 1634.99 795.475 1637.56 802.484C1640.18 809.653 1647.38 823.922 1657.54 839.671C1665.76 852.415 1678.59 870.212 1692.96 882.546C1699.09 887.803 1704.63 892.332 1709.5 896.315C1725.18 909.105 1734.63 916.82 1736.98 927.698C1739.89 941.216 1726.36 945.745 1719.87 947.907C1719.53 948.021 1719.23 948.134 1718.94 948.225C1716.59 949.022 1713.44 951.502 1709.82 954.347C1704.33 958.671 1697.5 964.042 1690.85 965.43C1681.64 967.319 1660.09 971.78 1634.51 965.43C1622.89 962.54 1610.7 962.267 1599.31 964.611C1588.74 966.796 1579.01 971.143 1571.18 977.219C1570.15 978.015 1569.1 978.812 1568.01 979.654C1553.32 990.874 1535.02 1004.82 1529.99 1041.35C1528.76 1050.34 1525.18 1059.44 1519.37 1068.41C1514.59 1075.78 1508.32 1083.04 1500.71 1090.01C1487.14 1102.46 1473.44 1110.12 1470 1111.51C1469.3 1111.79 1468.41 1112.13 1467.41 1112.51C1457.91 1116.11 1435.7 1124.51 1426.13 1142.33C1421.34 1151.25 1414.4 1158.96 1406.58 1164.08C1399.75 1168.54 1392.78 1170.64 1387.9 1169.7C1385.08 1169.16 1381.82 1168 1378.01 1166.63C1369.2 1163.49 1358.22 1159.58 1346.32 1161.31C1330.22 1163.67 1308.19 1166.93 1297.44 1185.11C1294.82 1189.53 1292.36 1194.21 1289.96 1198.74C1286.32 1205.64 1282.54 1212.78 1278.23 1219.09C1273.4 1226.14 1268.37 1231.4 1262.83 1235.16C1257.73 1238.62 1252.1 1241.37 1246.66 1244.01C1240.46 1247.04 1234.61 1249.88 1229.43 1253.7C1223.56 1258.05 1219.62 1262.87 1217.02 1268.93C1212.94 1278.44 1209.98 1289.32 1207.11 1299.83C1204.17 1310.69 1201.37 1320.93 1197.59 1328.94C1195.65 1333.04 1194.03 1337.61 1192.32 1342.46C1190.82 1346.69 1189.32 1350.99 1187.56 1355" stroke="#33CC99" stroke-width="0.5" stroke-miterlimit="10"/>
<path d="M1605.96 1C1617.47 10.3079 1621.04 17.2036 1625.53 25.9198C1629.43 33.4754 1634.28 42.8744 1645.99 56.5518C1655.38 67.5211 1660.73 76.1691 1662.32 82.9736C1663.74 88.9817 1662.16 92.896 1660.64 96.6738C1660.07 98.0848 1659.48 99.5641 1659.07 101.089C1657.52 107.006 1651.82 112.217 1646.33 117.27C1643.03 120.296 1639.61 123.414 1637.15 126.669C1633.53 131.448 1627.42 135.066 1620.36 139.231C1614.76 142.554 1608.38 146.309 1602.16 151.338C1586.55 163.923 1577.71 187.864 1576.76 190.55C1574.07 198.105 1564.75 207.755 1544.66 223.822C1535.73 230.945 1529.71 240.549 1526.27 253.179C1523.24 264.285 1522.54 276.119 1521.88 287.566C1521.76 289.341 1521.67 291.162 1521.56 292.937C1520.92 303.064 1525.32 318.836 1534.63 339.818C1542.15 356.75 1550.83 372.43 1555 379.94L1555.23 380.373C1558.19 385.721 1564.36 391.114 1571.52 397.35C1583.5 407.796 1598.42 420.813 1606.01 440.362C1610.84 452.834 1615.9 462.005 1621.48 468.4C1626.42 474.067 1631.16 476.957 1635.76 479.756C1636.88 480.439 1638.02 481.122 1639.13 481.85C1643.94 484.945 1647.13 489.201 1648.93 494.845C1650.43 499.601 1650.98 505.472 1650.66 513.278C1650.39 520.083 1647.58 527.229 1642.37 534.511C1637.22 541.68 1629.54 549.236 1619.52 556.951C1612.3 562.504 1606.03 568.671 1600.36 575.817C1595.28 582.189 1591.11 588.789 1587.05 595.161C1585.05 598.301 1583 601.556 1580.84 604.765C1577.14 610.249 1574.87 618.556 1573.89 630.185C1573.02 640.335 1573.25 651.714 1573.45 661.773C1573.59 668.487 1573.7 674.813 1573.52 680.23C1573.2 689.583 1577.35 700.712 1585.85 713.274C1593 723.834 1601.06 732.117 1603.37 734.393C1609.56 740.538 1634.62 763.751 1641.66 769.713C1648.43 775.448 1651.05 780.956 1655.88 793.017C1659.7 802.576 1664.19 808.424 1668.54 814.114C1669.45 815.297 1670.37 816.503 1671.28 817.732C1673.53 820.782 1677.95 827.359 1683.05 834.983C1689.84 845.087 1697.52 856.557 1703.4 864.613C1707.93 870.826 1716.18 878.86 1726.64 887.235C1736.14 894.836 1744.72 900.571 1749.01 902.892C1756.66 907.011 1772.86 913.975 1795.39 914.225C1813.11 914.408 1816.21 920.757 1818.47 925.377C1818.9 926.264 1819.31 927.084 1819.77 927.789C1822.36 931.658 1817.71 938.144 1813.23 944.402C1812.77 945.039 1812.32 945.677 1811.88 946.291C1809.22 950.046 1805.28 950.319 1801.11 950.615C1797.87 950.843 1794.55 951.07 1791.88 953.073C1786.87 956.874 1774.73 962.449 1762.08 962.449C1761.13 962.449 1760.17 962.426 1759.21 962.358C1746.39 961.471 1731.31 966.432 1720.92 970.733C1719.35 971.393 1717.27 972.326 1714.86 973.441C1702.46 979.108 1679.57 989.531 1660.39 989.531C1660.05 989.531 1659.7 989.531 1659.36 989.531C1648.84 989.326 1638.81 990.259 1628.72 992.398C1619.13 994.424 1610.86 997.269 1604.71 999.499C1594.03 1003.41 1585.87 1015.82 1579.31 1025.76C1577.17 1029.02 1575.16 1032.07 1573.34 1034.39C1568.42 1040.65 1553.22 1070.98 1543.18 1091.05C1538.19 1101 1534.27 1108.85 1533.13 1110.72C1532.65 1111.51 1531.83 1112.92 1530.83 1114.72C1524.34 1126.15 1509.1 1152.89 1497.39 1160.08C1483.29 1168.73 1471.17 1176.35 1454.1 1189.07C1437.4 1201.52 1418.45 1200.97 1402 1199.47C1395.44 1198.88 1387.65 1195.94 1379.4 1192.85C1368.79 1188.87 1357.81 1184.75 1347.62 1184.75C1347.46 1184.75 1347.33 1184.75 1347.17 1184.75C1328.49 1184.98 1311.36 1208.73 1306.55 1216.02L1306.18 1216.59C1300.35 1225.42 1282.61 1252.32 1261.17 1265.15C1251.6 1270.89 1242.83 1278.05 1235.15 1286.45C1228.18 1294.08 1224.1 1300.52 1222.28 1303.68C1218.89 1309.57 1210.91 1335.9 1205.24 1355.11" stroke="#33CC99" stroke-width="0.5" stroke-miterlimit="10"/>
<path d="M1918.07 998.884C1917.7 998.839 1917.31 998.793 1916.93 998.748" stroke="#33CC99" stroke-width="0.5" stroke-miterlimit="10"/>
<path d="M1912.42 998.202C1888.88 995.22 1871.09 993.673 1858.04 993.491C1846.42 993.331 1838.56 994.219 1833.27 996.29C1828.29 998.247 1814.27 1000.84 1799.24 1002.62C1788.58 1003.87 1768.53 1005.71 1753.95 1004.1C1744.02 1003 1735.54 1004.21 1728.09 1007.81C1721.51 1010.99 1716.5 1015.59 1711.64 1020.03C1710.67 1020.94 1709.62 1021.87 1708.61 1022.78C1705.13 1025.88 1701.17 1028.45 1696.95 1031.15C1688.39 1036.66 1678.68 1042.92 1670.5 1055.76C1664.44 1065.27 1656.97 1076.44 1650.36 1086.3C1643.83 1096.06 1638.18 1104.5 1635.87 1108.42C1633.62 1112.24 1633.14 1116.77 1632.59 1122C1632 1127.65 1631.32 1134.07 1628.38 1141.71C1626.97 1145.35 1625.53 1148.74 1624.12 1152C1619.75 1162.19 1615.62 1171.82 1613.66 1187.23C1612.46 1196.76 1613.66 1208.89 1614.71 1219.61C1615.94 1232.17 1617.01 1243.01 1614.25 1247.33C1611.16 1252.18 1605.44 1257.3 1598.9 1261.03C1590.47 1265.86 1580.86 1268.38 1570.99 1268.38C1570.72 1268.38 1570.42 1268.38 1570.15 1268.38C1569.44 1268.38 1568.78 1268.38 1568.12 1268.38C1560.79 1268.38 1556.28 1269.04 1553.66 1270.48C1550.99 1271.93 1550.44 1274.03 1549.74 1276.69C1549.37 1278.08 1548.96 1279.67 1548.17 1281.33C1547.41 1282.92 1546.75 1285.02 1546.05 1287.25C1544.34 1292.73 1542.38 1298.92 1537.98 1300.86C1534.98 1302.18 1531.26 1301.34 1526.57 1298.31C1519.46 1293.69 1515.38 1288.34 1511.42 1283.15C1506.09 1276.17 1500.58 1268.93 1487.59 1263.65C1480.96 1260.94 1475.97 1258.19 1471.58 1255.75C1466.2 1252.77 1461.55 1250.2 1455.4 1248.45C1448.68 1246.56 1440.75 1245.87 1430.43 1246.31C1418.5 1246.83 1407.56 1245.35 1397.9 1244.05C1390.95 1243.12 1384.35 1242.23 1378.36 1242.23C1377.49 1242.23 1376.62 1242.23 1375.8 1242.3C1368.45 1242.64 1362.8 1244.58 1357.99 1248.38C1351.25 1253.73 1344.73 1261.76 1337.83 1270.29C1332.7 1276.62 1327.39 1283.17 1321.61 1289.11C1315.05 1295.83 1308.83 1300.74 1302.58 1304.09C1280.19 1316.13 1262.13 1329.65 1250.35 1343.16C1247.91 1345.96 1245.97 1348.92 1244.4 1352.02" stroke="#33CC99" stroke-width="0.5" stroke-miterlimit="10"/>
<path d="M1243.42 1354.02C1243.26 1354.36 1243.1 1354.7 1242.97 1355.07" stroke="#33CC99" stroke-width="0.5" stroke-miterlimit="10"/>
<path d="M1918.07 833.822C1911.21 828.269 1904.01 822.921 1897.06 818.256C1884.49 809.812 1866.33 799.321 1851.2 797.227C1838.76 795.521 1825.6 793.222 1813.59 788.147C1801.22 782.913 1791.24 775.107 1783.13 764.297C1772.93 750.688 1765.55 744.748 1759.62 739.969C1755.45 736.601 1752.15 733.938 1749.37 729.659C1741.4 717.416 1731.01 698.049 1732.92 671.263C1734.31 651.737 1738.91 639.538 1742.26 630.617C1743.72 626.703 1745 623.335 1745.61 620.308C1746.2 617.395 1748.51 607.131 1752.9 597.004C1757.66 586.035 1763.18 579.162 1769.26 576.522C1783.31 570.446 1797.85 561.934 1799.01 544.889C1800.15 528.185 1800.63 521.266 1783.13 502.036C1778.1 496.506 1772.65 490.725 1767.39 485.127C1754.09 471.017 1741.53 457.704 1734.38 447.349C1724.47 433.011 1696.75 406.271 1688.5 398.42C1684.83 394.938 1679.23 386.813 1673.87 377.209C1668.06 366.786 1663.51 356.454 1661.39 348.853C1656.45 331.034 1657.54 317.743 1665.13 303.042C1667.27 298.877 1669.61 295.349 1671.89 291.936C1675.01 287.225 1678.25 282.355 1680.98 275.846C1684.03 268.541 1686.11 259.893 1687.36 249.356C1689.05 234.905 1693.35 221.523 1699.75 210.622C1705.02 201.656 1711.76 194.51 1718.21 190.982C1723.86 187.91 1730.19 187.159 1736.34 186.431C1743.08 185.634 1749.44 184.883 1754.29 181.128C1763.77 173.823 1794.23 155.275 1813.16 144.784C1817.49 142.394 1822.25 139.8 1827.28 137.069C1844.8 127.556 1864.64 116.746 1873.19 110.124C1875.21 108.553 1877.58 106.755 1880.09 104.867C1891.14 96.4917 1906.27 85.0445 1915.9 74.8035C1916.65 74.007 1917.38 72.2547 1918.11 71.4581" stroke="#33CC99" stroke-width="0.5" stroke-miterlimit="10"/>
<path d="M1918.07 774.288C1915.2 773.036 1912.03 771.67 1908.57 770.168C1893.74 763.751 1875.26 755.785 1858.52 747.502C1838.67 737.693 1826.23 729.978 1820.54 723.856C1809.03 711.522 1808.74 705.787 1808.4 698.527C1808.24 695.022 1808.03 691.062 1806.53 685.828C1801.97 670.102 1797.58 651.35 1799.31 631.505C1801.04 611.683 1816.01 585.352 1831.31 575.157C1846.56 565.007 1855.85 547.984 1864.8 529.96C1867.2 525.135 1867.61 519.969 1865.99 514.553C1864.07 508.089 1859.22 501.308 1851.98 494.913C1845.1 488.836 1836.14 483.192 1826.1 478.595C1801.84 467.467 1772.06 439.543 1757.73 426.116C1755.82 424.318 1754.18 422.77 1752.81 421.519C1748.66 417.718 1740.55 409.89 1732.9 400.331C1725.27 390.818 1720.03 382.079 1717.32 374.319C1716.91 373.158 1716.52 372.021 1716.11 370.86C1713.33 362.94 1710.44 354.747 1708.59 346.486C1706.52 337.224 1705.97 328.781 1706.95 320.679C1707.64 314.921 1710.53 309.732 1715.77 304.817C1720.39 300.47 1726.22 296.92 1731.85 293.461C1737.48 290.001 1742.81 286.747 1746.48 282.992C1754.06 275.232 1751.47 265.013 1748.94 255.159C1747.82 250.812 1746.68 246.306 1746.5 242.187C1746.2 235.61 1747.39 230.74 1750.17 226.848C1752.81 223.184 1757 220.18 1763.79 217.108C1776.3 211.419 1811.29 191.392 1822.38 182.448C1829.38 176.804 1834.89 175.348 1841.27 173.663C1844.87 172.708 1848.58 171.729 1852.96 169.886C1857.83 167.837 1861.73 165.607 1865.49 163.422C1871.09 160.214 1876.85 156.891 1885.83 154.206C1896.47 151.042 1897.81 147.492 1899.89 142.098C1900.73 139.891 1901.69 137.388 1903.46 134.52C1905.9 130.56 1910.82 126.191 1918.07 121.48V121.343" stroke="#33CC99" stroke-width="0.5" stroke-miterlimit="10"/>
<path d="M1918.07 745.59C1913.35 742.722 1907.77 739.195 1901.94 735.486C1886.22 725.518 1868.43 714.207 1860.34 711.635C1855.1 709.974 1849.52 704.626 1843.78 695.75C1838.49 687.58 1834.66 678.819 1833.25 675.428C1829.15 665.551 1823.71 644.727 1829.22 629.275C1829.63 628.091 1830.06 626.908 1830.47 625.747C1835.48 611.501 1840.66 596.754 1858.27 581.074C1869.29 571.242 1877.06 560.137 1881.62 552.581C1887.2 543.341 1891.14 534.079 1892.14 527.821L1892.28 527.024C1893.26 520.925 1894.74 511.685 1894.19 503.197C1893.9 498.531 1892.98 494.571 1891.5 491.454C1889.77 487.79 1887.2 485.127 1883.85 483.579C1881.73 482.601 1879.02 481.349 1875.88 479.915C1857.67 471.631 1823.8 456.179 1812.11 446.894C1809.17 444.55 1805.28 441.728 1800.79 438.473C1792.75 432.647 1782.02 426.89 1773.22 419.22C1762.9 410.254 1757 401.059 1753.65 394.141C1752.38 391.501 1751.1 388.907 1749.87 386.403C1741.74 369.972 1731.26 355.134 1734.08 342.572C1734.36 341.366 1737.3 336.268 1737.55 335.085C1740.42 321.749 1744.13 310.665 1759.62 301.744C1775.09 292.846 1779.33 285.655 1778.69 274.526C1778.55 272.114 1778.78 269.041 1778.14 265.446C1776.14 254.476 1777.41 242.256 1784.82 233.016C1800.49 213.49 1789.56 203.544 1820.61 191.528C1821.75 191.096 1830.52 187.864 1831.61 187.455C1844.05 182.607 1854.48 189.89 1874.62 186.977C1886.79 185.224 1897.15 176.599 1903.71 171.593C1910.27 166.586 1915.15 161.306 1918.11 157.323" stroke="#33CC99" stroke-width="0.5" stroke-miterlimit="10"/>
<path d="M1918.07 710.429C1911.21 706.788 1904.37 701.349 1898.43 698.276C1895.69 696.866 1893.1 695.523 1890.75 694.294C1884.08 690.812 1874.37 683.894 1867.22 674.859C1861.8 668.031 1855.99 657.631 1859.04 646.798C1860.79 640.585 1863.41 635.624 1864.37 629.502C1866.35 616.781 1866.58 603.354 1875.19 596.23C1881 591.406 1887.49 584.169 1893.92 575.293C1899.43 567.692 1904.78 559.067 1908.95 551.033C1911.05 546.983 1913.19 543.455 1915.24 540.019C1916.22 538.403 1917.15 536.833 1918.07 535.262" stroke="#33CC99" stroke-width="0.5" stroke-miterlimit="10"/>
<path d="M361.513 1332.42C347.138 1345.26 330.599 1347.15 319.254 1346.49C305.973 1345.69 294.354 1340.93 289.73 1336.63C279.524 1327.12 273.601 1308.8 269.272 1295.42C267.245 1289.16 265.513 1283.77 263.759 1280.54C261.003 1275.41 259.385 1266.33 257.699 1256.71C256.059 1247.4 254.191 1236.86 250.979 1228.37C245.739 1214.47 240.978 1209.89 235.51 1204.59C232.161 1201.36 228.38 1197.7 224.029 1191.39C220.384 1186.11 216.169 1180.2 211.704 1173.94C202.341 1160.78 192.659 1147.17 188.08 1139.32C182.544 1129.81 174.388 1124.48 167.189 1119.77C165.526 1118.68 163.954 1117.66 162.428 1116.59C154.409 1111.01 127.914 1105.32 116.592 1102.89L114.815 1102.5C108.892 1101.23 107.343 1099.75 104.996 1097.54C103.652 1096.27 101.989 1094.69 99.1189 1092.78C91.8061 1087.96 85.7235 1081.65 78.0462 1065.27C70.6651 1049.52 70.3917 1044.01 71.5308 1036.03C72.647 1028.13 74.0367 1016.59 73.2621 1007.65C72.5103 998.907 65.7671 987.961 61.7348 981.406L61.4842 980.997C60.3679 979.176 58.8872 977.06 57.1558 974.602C52.6223 968.139 46.9726 960.082 44.1932 952.072C43.3276 949.591 43.282 947.793 44.0338 946.587C45.0589 944.948 47.5193 944.448 50.7542 944.448C53.0552 944.448 55.7661 944.698 58.6366 944.971C60.6869 945.153 62.8055 945.358 64.947 945.472C76.292 946.086 88.7534 950.046 101.989 957.215C114.132 963.792 124.178 956.054 133.883 948.567L134.156 948.362C140.421 943.537 150.513 940.897 159.421 938.576C164.729 937.188 169.741 935.891 173.522 934.252C181.428 930.839 188.307 913.77 193.342 901.299C194.869 897.498 196.213 894.198 197.329 891.877C202.364 881.431 204.459 858.719 204.277 846.657C204.14 837.623 203.138 834.71 201.293 829.453C200.473 827.108 199.448 824.218 198.308 820.076C194.732 807.218 193.137 786.167 193.137 771.033C193.137 754.784 178.648 721.58 173.864 710.657C166.734 694.294 152.746 652.624 150.605 643.908C148.554 635.533 152.951 623.904 158.236 617.941C160.856 614.983 160.583 612.457 160.287 609.544C159.968 606.426 159.603 602.898 162.314 597.505C165.481 591.246 174.32 580.914 182.088 571.811C187.601 565.371 192.795 559.295 195.575 555.198C199.379 549.577 204.004 535.922 208.469 522.723C212 512.322 215.326 502.514 218.105 496.961C224.12 484.922 235.556 451.855 241.411 433.285C246.514 417.081 264.511 389.954 274.216 381.556C280.458 376.162 283.67 368.834 286.768 361.757C288.386 358.047 290.071 354.224 292.167 350.674C296.427 343.459 302.396 328.052 309.891 304.862C312.898 295.6 322.284 282.104 328.868 275.778C334.928 269.952 360.625 269.565 371.56 272.66C376.959 274.185 386.049 274.503 395.685 274.822C404.524 275.118 413.66 275.436 420.061 276.734C431.019 278.987 444.027 278.44 456.602 277.94C459.268 277.826 461.933 277.712 464.53 277.644C478.564 277.211 489.818 277.78 501.049 279.442C508.248 280.511 510.617 279.715 514.922 278.258C516.973 277.553 519.524 276.711 523.26 275.823C535.175 273.024 555.245 271.522 565.155 271.522C572.195 271.522 582.378 260.348 590.556 251.381C594.748 246.784 598.347 242.824 600.466 241.595C608.121 237.158 625.776 236.156 632.109 241.118C636.21 244.326 640.743 254.317 645.117 263.989C647.441 269.132 649.856 274.435 652.157 278.622C657.693 288.681 670.746 302.495 681.226 313.601C683.322 315.809 685.304 317.925 687.149 319.905C694.917 328.257 701.66 336.2 707.629 343.186C710.226 346.236 712.687 349.126 715.033 351.812C719.658 357.137 720.956 366.9 722.186 376.344C722.984 382.489 723.827 388.839 725.558 394.073L725.786 394.801C730.023 407.591 730.775 409.889 733.372 420.768C734.557 425.752 734.671 428.915 734.784 431.464C734.898 434.513 734.989 436.721 736.926 439.884C740.525 445.779 743.737 457.499 742.644 464.349C741.938 468.787 738.042 475.022 734.283 481.03C731.937 484.785 729.704 488.336 728.246 491.431C725.626 496.984 722.528 498.918 718.633 501.376C716.901 502.468 714.942 503.674 712.823 505.381C707.925 509.25 703.802 517.397 699.792 525.249C698.152 528.458 696.489 531.758 694.781 534.671C690.202 542.568 690.566 557.451 690.862 569.422C690.931 572.54 691.022 575.475 690.976 577.888C690.862 585.739 691.158 613.549 699.929 642.292C706.923 665.164 711.479 674.904 717.266 687.239C718.017 688.832 718.769 690.448 719.566 692.155C724.054 701.849 729.089 727.475 732.415 744.452C733.076 747.843 733.668 750.847 734.169 753.237C737.131 767.665 733.577 777.815 728.223 790.605C726.241 795.339 724.351 800.482 722.369 805.921C718.587 816.23 714.691 826.881 709.771 835.552C702.389 848.569 683.868 870.121 674.984 878.291C668.605 884.14 663.775 890.853 658.672 897.976C656.599 900.844 654.48 903.802 652.134 906.875C645.345 915.75 641.267 919.915 637.668 923.602C635.162 926.15 632.998 928.358 630.423 931.681C627.621 935.276 623.771 937.097 619.671 939.009C614.659 941.353 609.487 943.765 605.159 949.705C599.578 957.351 573.789 979.882 543.103 990.373C524.513 996.722 504.261 1007.28 490.228 1017.93C476.399 1028.42 459.427 1071.37 454.051 1087.03C449.472 1100.36 450.884 1117.18 452.251 1133.43C452.866 1140.87 453.459 1147.9 453.459 1154.41C453.459 1166.36 457.035 1173.39 460.498 1180.2C463.027 1185.2 465.442 1189.91 466.171 1196.24C467.697 1209.35 452.456 1226.3 442.387 1237.52C441.111 1238.96 439.904 1240.28 438.833 1241.51C434.003 1247.01 429.994 1256.68 425.347 1267.86C420.79 1278.83 415.642 1291.25 408.488 1302.68C401.085 1314.54 395.936 1315.81 388.851 1317.56C382.336 1319.18 374.225 1321.16 361.513 1332.51V1332.42Z" stroke="#33CC99" stroke-width="0.5" stroke-miterlimit="10"/>
<path d="M1.04553 562.276C3.82485 560.637 6.08019 557.793 7.05979 555.562C8.03938 553.309 8.88229 550.897 9.74797 548.371C11.9122 542.135 14.1448 535.695 18.906 531.189C21.3892 528.867 23.804 527.001 26.1505 525.181C30.1372 522.108 34.2834 518.945 38.5435 513.483C41.3684 509.887 43.282 504.926 45.2867 499.692C48.0888 492.409 51.0048 484.899 56.5635 480.712C61.4842 477.002 65.3115 476.001 68.6831 475.113C71.7586 474.317 74.424 473.611 76.7932 470.926C81.5545 465.555 99.1644 442.524 103.766 431.896C106.318 426.002 110.897 420.267 115.294 414.714C118.779 410.322 122.082 406.18 124.133 402.243C125.75 399.148 127.254 395.165 128.826 390.932C131.764 383.126 134.794 375.047 138.872 371.998C145.205 367.264 172.839 353.632 179.4 350.97C181.04 350.31 183.592 349.376 186.553 348.284C195.803 344.893 209.767 339.773 215.03 335.995C221.91 331.034 233.506 307.843 236.285 299.514C239.087 291.162 254.396 252.724 259.727 244.213C265.559 234.905 281.164 206.64 284.012 196.808C287.087 186.226 295.903 161.192 301.872 151.133C305.084 145.694 309.663 142.645 313.673 139.959C316.771 137.888 319.436 136.113 320.735 133.678C321.578 132.062 322.216 130.333 322.831 128.648C324.312 124.552 325.838 120.319 330.827 117.019C332.467 115.927 334.039 114.971 335.543 114.061C340.555 111.034 344.906 108.394 347.389 103.091C348.278 101.18 349.052 98.9951 349.781 96.8558C351.695 91.3712 353.654 85.7273 358.119 83.9749C362.106 82.4046 366.366 83.497 370.466 84.5211C372.904 85.1356 375.205 85.7045 377.46 85.7955C380.604 85.9093 386.003 88.9134 390.218 94.4435C392.883 97.9482 395.982 103.683 395.503 111.057C395.139 116.473 393.749 122.822 392.291 129.536C389.808 140.869 387.234 152.59 389.808 160.1C394.022 172.389 412.908 188.615 428.741 197.172C445.554 206.275 513.829 209.052 521.802 207.732C528.318 206.64 529.092 206.344 531.143 205.524C532.145 205.137 533.512 204.591 536.063 203.749C538.273 203.044 540.301 203.021 542.101 202.998C546.657 202.953 549.96 202.93 551.623 192.416C553.97 177.646 558.936 164.583 565.611 155.639C567.433 153.204 569.119 150.382 570.919 147.401C576.045 138.912 581.854 129.286 593.017 123.778C599.76 120.456 603.701 116.814 606.845 113.901C610.877 110.169 613.565 107.689 619.261 108.189C627.507 108.94 638.465 96.56 645.71 88.4127C647.669 86.2052 649.377 84.2935 650.608 83.0874C652.453 81.3123 655.733 77.1931 659.515 72.4367C667.443 62.4915 678.287 48.8596 683.185 47.9493C690.452 46.6066 715.398 45.2411 719.931 49.2465C724.054 52.8877 746.494 78.2399 750.822 93.0325C752.531 98.8585 755.356 104.935 758.34 111.353C762.828 121.025 767.476 131.015 769.093 141.689C771.622 158.507 772.715 181.219 769.093 191.346C767.589 195.556 763.215 202.634 758.545 210.144C752.372 220.089 745.401 231.354 742.758 239.593C737.792 255.068 737.382 267.289 741.619 272.296C742.781 273.684 746.562 277.234 751.779 282.15C766.268 295.805 790.53 318.676 793.492 327.438L794.198 329.509C798.504 342.208 807.434 368.652 809.074 389.18C809.666 396.667 812.127 409.025 814.724 422.133C819.827 447.895 825.613 477.093 821.239 485.923C820.191 488.04 819.075 490.361 817.89 492.796C811.466 506.087 803.47 522.609 797.661 526.592C790.644 531.416 781.577 548.667 781.577 560.364C781.577 572.631 785.245 625.702 788.32 643.999C791.555 663.252 807.183 714.435 819.804 723.242C832.288 731.958 846.618 746.705 848.736 752.986C851.425 760.929 852.336 772.717 841.446 783.8C835.204 790.15 827.709 799.458 820.465 808.447C816.136 813.795 812.058 818.87 808.596 822.875C805.794 826.107 802.49 829.316 799.005 832.684C790.963 840.49 782.648 848.546 778.729 858.514C774.629 868.892 763.215 892.401 754.194 898.932C739.341 909.651 732.392 916.547 727.927 931.476C723.531 946.155 726.287 959.832 735.331 968.048C736.812 969.39 738.68 970.938 740.844 972.736C750.936 981.133 766.177 993.809 768.524 1007.71C769.594 1014.02 769.344 1022.3 769.07 1031.06C768.615 1045.83 768.136 1061.1 773.968 1069C784.789 1083.61 814.177 1090.8 854.568 1088.8C897.055 1086.68 898.422 1087.18 914.984 1093.28C917.353 1094.15 920.019 1095.15 923.163 1096.24C942.8 1103.18 981.642 1098.63 994.4 1093.63C1008.3 1088.19 1012.44 1087.03 1015.72 1096.52C1017.66 1102.09 1018.57 1106.32 1017.09 1110.17C1015.56 1114.13 1011.58 1117.32 1004.54 1120.14C997.862 1122.82 993.671 1126.92 989.957 1130.52C984.763 1135.57 980.685 1139.57 972.142 1138C964.26 1136.57 956.97 1132.45 949.908 1128.47C940.818 1123.35 932.23 1118.5 923.322 1119.77C907.58 1122.03 905.507 1122.16 895.529 1118.32C887.783 1115.34 868.146 1108.92 852.769 1113.56C844.909 1115.93 838.052 1122.46 830.785 1129.38C824.634 1135.23 818.278 1141.28 810.395 1145.97C805.384 1148.95 801.01 1152.09 797.16 1154.87C787.523 1161.78 779.891 1167.25 769.002 1165.65C753.123 1163.31 721.799 1175.17 708.062 1184.04C693.368 1193.53 670.063 1210.78 652.817 1228.24C647.942 1233.18 641.951 1239.87 635.618 1246.94C618.76 1265.77 599.669 1287.11 591.126 1287.27C578.072 1287.52 550.735 1293.78 542.738 1305.39C536.838 1313.94 529.48 1318.5 522.349 1322.91C519.479 1324.69 516.745 1326.37 514.125 1328.3C509.637 1331.6 506.174 1335.52 502.484 1339.66C498.406 1344.23 494.214 1348.99 487.949 1353.88C487.448 1354.29 486.947 1354.66 486.469 1355.02" stroke="#33CC99" stroke-width="0.5" stroke-miterlimit="10"/>
<path d="M432.067 1C432.135 1.20482 432.249 1.40964 432.318 1.61446C435.94 11.1272 443.503 27.8542 447.331 35.3871C449.062 38.778 450.269 41.3724 451.454 43.8757C453.026 47.2211 454.529 50.4072 457.058 55.0953C460.453 61.3992 465.556 64.1984 472.641 68.0445C474.828 69.2507 477.334 70.5934 479.976 72.1864C491.344 78.991 497.495 79.56 507.473 74.667C517.611 69.7286 550.484 58.8276 563.766 57.2573C573.083 56.1422 580.647 49.5424 587.959 43.1702C591.103 40.4165 594.087 37.8221 597.095 35.7739C600.466 33.4754 605 29.9707 609.829 26.2384C619.215 18.9787 629.854 10.7631 634.684 9.3066C639.331 7.91837 647.715 4.68677 652.658 1" stroke="#33CC99" stroke-width="0.5" stroke-miterlimit="10"/>
<path d="M1224.58 1355.07C1229.5 1335.38 1247.2 1310.3 1254.31 1302.86C1257.61 1299.4 1262.69 1297.28 1268.07 1295.05C1275.36 1292.01 1282.92 1288.86 1287.25 1281.99C1288.96 1279.28 1290.81 1276.03 1292.77 1272.57C1299.49 1260.71 1307.82 1245.94 1318.03 1240.19C1323.02 1237.39 1328.37 1232.95 1333.54 1228.67C1342.25 1221.48 1351.22 1214.04 1359.1 1213.6C1364.91 1213.29 1374.3 1215.56 1384.23 1217.95C1395.85 1220.75 1407.86 1223.64 1414.92 1222.55C1421.39 1221.52 1454.54 1216.68 1472.83 1220.84C1489.41 1224.62 1517.64 1223.91 1526.96 1217.75C1536.5 1211.44 1563.75 1172.3 1567.46 1161.22C1569.1 1156.3 1568.9 1149.5 1568.67 1142.28C1568.37 1133 1568.05 1123.39 1571.77 1117.11C1572.57 1115.79 1573.61 1113.99 1574.87 1111.85C1583.75 1096.7 1604.53 1061.2 1612.11 1054.35C1618.97 1048.15 1659.04 1014.04 1671.73 1011.61C1677.11 1010.58 1688.89 1005.26 1701.33 999.635C1717.59 992.285 1736.02 983.955 1743.83 983.591C1750.94 983.25 1757.18 983.659 1762.7 984.046C1773.79 984.797 1782.54 985.412 1792.68 979.995C1808.4 971.621 1826.83 966.409 1836.17 965.749C1837.69 965.635 1840.04 965.681 1842.77 965.726C1854.83 965.885 1875.01 966.204 1881.14 956.578C1883.05 953.574 1883.44 949.796 1882.28 945.335C1877.49 926.947 1869.72 913.998 1864.05 904.553C1862.12 901.344 1860.45 898.568 1859.15 896.019C1853.82 885.55 1817.85 883.684 1804.09 885.687C1786.78 888.213 1757.64 884.617 1741.9 875.196C1730.23 868.209 1717.02 846.771 1707.38 831.114C1703.38 824.605 1699.91 819.007 1697.25 815.456C1696.09 813.932 1694.99 812.475 1693.94 811.11C1686.59 801.46 1681.73 795.088 1674.19 780.842C1670.64 774.151 1660.77 764.524 1649.36 753.373C1632.89 737.306 1614.23 719.077 1609.29 704.444C1608.51 702.145 1607.69 699.801 1606.87 697.434C1598.72 674.017 1589.47 647.458 1603.8 620.467C1614.44 600.418 1627.63 586.24 1639.27 573.746C1644.9 567.715 1650.18 562.003 1654.56 556.313L1656.76 553.446C1669.61 536.742 1684.17 517.807 1680.3 506.087C1676.36 494.162 1657.49 475.523 1649.45 467.581L1648.77 466.921C1642.12 460.344 1634.71 447.258 1624.01 423.18C1617.15 407.75 1607.63 399.808 1598.42 392.116C1594.41 388.77 1590.29 385.334 1586.44 381.306C1572.34 366.581 1561.27 343.801 1556.8 320.315C1555.78 314.944 1554.5 309.163 1553.27 303.588C1548.49 282.013 1543.52 259.711 1550.97 250.949C1555.05 246.147 1563.59 239.934 1572.63 233.334C1584.53 224.664 1596.83 215.697 1599.49 209.439C1602.64 202.042 1618.86 164.72 1629.13 157.255C1637.83 150.928 1651.02 140.005 1664.37 123.915C1667.97 119.568 1670.73 115.654 1673.14 112.172C1679.2 103.478 1683.6 97.1972 1695.72 93.0781C1703.15 90.5519 1711.44 90.0513 1719.46 89.5734C1729.73 88.9361 1739.44 88.3672 1745.98 83.5425C1750.26 80.3792 1754.93 78.4903 1759.05 76.8062C1766 73.9615 1771.99 71.5264 1772.93 64.3349C1773.13 62.7419 1773.36 61.2399 1773.59 59.8061C1774.89 51.2947 1775.75 45.6735 1768.23 38.5731C1759.26 30.13 1734.56 34.2719 1724.38 41.2585C1722.22 42.7378 1720.51 45.3549 1717.93 46.1287C1662.98 62.4916 1651.09 9.35208 1658.04 1.06824" stroke="#33CC99" stroke-width="0.5" stroke-miterlimit="10"/>
<path d="M1918.07 101.248C1917.72 101.407 1917.38 101.567 1917.04 101.726" stroke="#33CC99" stroke-width="0.5" stroke-miterlimit="10"/>
<path d="M1912.89 103.683C1902.05 108.986 1889.91 116.109 1884.46 123.482C1875.81 135.226 1852.46 145.853 1841.25 150.974C1840.18 151.452 1839.22 151.884 1838.4 152.271C1831.66 155.389 1808.78 166.313 1797.67 175.393C1786.87 184.223 1762.45 198.242 1750.99 202.179C1749.55 202.68 1748.09 203.158 1746.66 203.635C1736.36 207.049 1726.63 210.258 1722.26 219.316C1717.29 229.648 1716.16 236.976 1715.31 253.748C1714.54 268.996 1712.31 271.886 1704.95 281.49C1704.15 282.514 1703.31 283.629 1702.4 284.835C1700.03 287.976 1698 290.32 1696.22 292.368C1690.87 298.536 1687.93 301.949 1685.33 315.536C1681.82 333.81 1689.48 373.295 1699.23 387.132C1704.06 393.982 1711.14 399.922 1718.02 405.657C1725.18 411.619 1731.92 417.263 1735.59 423.476C1740.71 432.169 1750.08 440.567 1759.99 449.488C1764 453.084 1768.12 456.793 1771.99 460.571C1778.67 467.057 1784.61 472.087 1790.4 476.957C1796.32 481.941 1801.9 486.674 1808.21 492.842C1809.95 494.549 1811.52 496.028 1812.91 497.371C1823.02 507.043 1824.82 508.795 1827.6 523.588C1828.58 528.799 1829.63 532.44 1830.4 535.08C1832.18 541.225 1832.61 542.681 1828.1 548.439C1827.1 549.713 1826.01 551.17 1824.8 552.74C1818.01 561.684 1808.69 573.905 1800.9 577.933L1800.04 578.388C1790.99 583.031 1781.65 587.81 1778.83 607.723C1777.64 616.03 1776.12 625.383 1774.66 634.441C1772.45 648.05 1770.33 660.908 1769.3 670.58C1767.57 686.852 1768.73 693.93 1773.06 706.902C1778.05 721.808 1804.77 745.522 1819.13 758.266C1823.36 762.021 1826.71 764.98 1828.13 766.527C1832.2 770.897 1845.74 774.948 1858.81 778.885C1866.35 781.138 1873.46 783.277 1878.52 785.393C1884.55 787.919 1899.52 795.794 1915.06 804.328" stroke="#33CC99" stroke-width="0.5" stroke-miterlimit="10"/>
<path d="M1917.06 805.398C1917.41 805.58 1917.72 805.762 1918.07 805.944" stroke="#33CC99" stroke-width="0.5" stroke-miterlimit="10"/>
</svg>
